ISO-10303-21;
HEADER;
FILE_DESCRIPTION (( 'STEP AP214' ),
    '1' );
FILE_NAME ('Flat Bracket.STEP',
    '2026-05-14T22:59:02',
    ( '' ),
    ( '' ),
    'SwSTEP 2.0',
    'SolidWorks 2025',
    '' );
FILE_SCHEMA (( 'AUTOMOTIVE_DESIGN' ));
ENDSEC;

DATA;
#1 = ORIENTED_EDGE ( 'NONE', *, *, #689, .T. ) ;
#2 = ORIENTED_EDGE ( 'NONE', *, *, #382, .T. ) ;
#3 = CARTESIAN_POINT ( 'NONE',  ( -31.75000000000000000, 8.000000000000000000, -6.000000000000000000 ) ) ;
#4 = CARTESIAN_POINT ( 'NONE',  ( -19.05000000000000071, 2.000000000000000000, -12.69999999999999929 ) ) ;
#5 = EDGE_CURVE ( 'NONE', #378, #250, #814, .T. ) ;
#6 = DIRECTION ( 'NONE',  ( 0.000000000000000000, 0.000000000000000000, 1.000000000000000000 ) ) ;
#7 = EDGE_CURVE ( 'NONE', #803, #853, #259, .T. ) ;
#8 = AXIS2_PLACEMENT_3D ( 'NONE', #807, #889, #80 ) ;
#9 = VERTEX_POINT ( 'NONE', #1053 ) ;
#10 = CARTESIAN_POINT ( 'NONE',  ( 2.944486372867097135, 2.000000000000000000, -55.89999999999999147 ) ) ;
#11 = PLANE ( 'NONE',  #793 ) ;
#12 = CIRCLE ( 'NONE', #291, 5.999999999999998224 ) ;
#13 = ORIENTED_EDGE ( 'NONE', *, *, #137, .T. ) ;
#14 = EDGE_CURVE ( 'NONE', #556, #821, #324, .T. ) ;
#15 = VERTEX_POINT ( 'NONE', #645 ) ;
#16 = EDGE_LOOP ( 'NONE', ( #816, #990 ) ) ;
#17 = LINE ( 'NONE', #498, #995 ) ;
#18 = CARTESIAN_POINT ( 'NONE',  ( 12.69999999999999929, 0.000000000000000000, -63.50000000000000000 ) ) ;
#19 = LINE ( 'NONE', #826, #456 ) ;
#20 = ORIENTED_EDGE ( 'NONE', *, *, #865, .F. ) ;
#21 = ORIENTED_EDGE ( 'NONE', *, *, #790, .T. ) ;
#22 = CARTESIAN_POINT ( 'NONE',  ( 19.05000000000000071, 2.000000000000000000, -9.600000000000001421 ) ) ;
#23 = CARTESIAN_POINT ( 'NONE',  ( 19.05000000000000071, 8.000012000000001677, -6.999999999999997335 ) ) ;
#24 = ORIENTED_EDGE ( 'NONE', *, *, #960, .T. ) ;
#25 = VERTEX_POINT ( 'NONE', #883 ) ;
#26 = DIRECTION ( 'NONE',  ( 0.000000000000000000, 1.000000000000000000, 0.000000000000000000 ) ) ;
#27 = VECTOR ( 'NONE', #651, 1000.000000000000000 ) ;
#28 = DIRECTION ( 'NONE',  ( -0.000000000000000000, -1.000000000000000000, -0.000000000000000000 ) ) ;
#29 = CIRCLE ( 'NONE', #416, 3.099999999999998757 ) ;
#30 = AXIS2_PLACEMENT_3D ( 'NONE', #480, #967, #162 ) ;
#31 = CARTESIAN_POINT ( 'NONE',  ( 31.11656314599949624, 8.000000000000000000, -26.66687370800100609 ) ) ;
#32 = ORIENTED_EDGE ( 'NONE', *, *, #800, .T. ) ;
#33 = EDGE_LOOP ( 'NONE', ( #742, #341, #347, #217 ) ) ;
#34 = CARTESIAN_POINT ( 'NONE',  ( -25.75000000000000355, 8.000000000000000000, -6.000000000000000000 ) ) ;
#35 = CARTESIAN_POINT ( 'NONE',  ( -25.75000000000000355, 0.000000000000000000, -23.98359213500125975 ) ) ;
#36 = ADVANCED_FACE ( 'NONE', ( #642 ), #901, .F. ) ;
#37 = CARTESIAN_POINT ( 'NONE',  ( 5.384766836257881381E-14, 8.000000000000000000, -45.69999999999998863 ) ) ;
#38 = EDGE_LOOP ( 'NONE', ( #952, #214, #279, #774 ) ) ;
#39 = ORIENTED_EDGE ( 'NONE', *, *, #100, .F. ) ;
#40 = CARTESIAN_POINT ( 'NONE',  ( -31.75000000000000000, 8.000000000000000000, 0.000000000000000000 ) ) ;
#41 = CYLINDRICAL_SURFACE ( 'NONE', #762, 5.999999999999998224 ) ;
#42 = ORIENTED_EDGE ( 'NONE', *, *, #640, .F. ) ;
#43 = EDGE_LOOP ( 'NONE', ( #581, #852, #201, #302 ) ) ;
#44 = DIRECTION ( 'NONE',  ( 0.000000000000000000, 0.000000000000000000, 1.000000000000000000 ) ) ;
#45 = LINE ( 'NONE', #133, #973 ) ;
#46 = AXIS2_PLACEMENT_3D ( 'NONE', #819, #412, #350 ) ;
#47 = LINE ( 'NONE', #472, #781 ) ;
#48 = COLOUR_RGB ( '',0.7921568627450980005, 0.8196078431372548767, 0.9333333333333333481 ) ;
#49 = AXIS2_PLACEMENT_3D ( 'NONE', #783, #631, #953 ) ;
#50 = EDGE_CURVE ( 'NONE', #680, #248, #789, .T. ) ;
#51 = ORIENTED_EDGE ( 'NONE', *, *, #740, .F. ) ;
#52 = APPLICATION_PROTOCOL_DEFINITION ( 'draft international standard', 'automotive_design', 1998, #496 ) ;
#53 = DIRECTION ( 'NONE',  ( 0.000000000000000000, 0.000000000000000000, 1.000000000000000000 ) ) ;
#54 = CARTESIAN_POINT ( 'NONE',  ( -19.05000000000000071, 2.000000000000000000, -12.69999999999999929 ) ) ;
#55 = ORIENTED_EDGE ( 'NONE', *, *, #415, .T. ) ;
#56 = EDGE_CURVE ( 'NONE', #840, #731, #385, .T. ) ;
#57 = DIRECTION ( 'NONE',  ( -0.000000000000000000, 1.000000000000000000, -0.000000000000000000 ) ) ;
#58 = DIRECTION ( 'NONE',  ( -0.000000000000000000, 1.000000000000000000, -0.000000000000000000 ) ) ;
#59 = CARTESIAN_POINT ( 'NONE',  ( 31.75000000000000000, 8.000000000000000000, -25.39999999999999858 ) ) ;
#60 = SHAPE_DEFINITION_REPRESENTATION ( #204, #896 ) ;
#61 = DIRECTION ( 'NONE',  ( 0.000000000000000000, 0.000000000000000000, 1.000000000000000000 ) ) ;
#62 = ADVANCED_FACE ( 'NONE', ( #705 ), #891, .T. ) ;
#63 = ORIENTED_EDGE ( 'NONE', *, *, #285, .T. ) ;
#64 = DIRECTION ( 'NONE',  ( -0.4472135954999579277, -0.000000000000000000, 0.8944271909999158554 ) ) ;
#65 = VECTOR ( 'NONE', #813, 1000.000000000000000 ) ;
#66 = CIRCLE ( 'NONE', #186, 3.099999999999998757 ) ;
#67 = SURFACE_SIDE_STYLE ('',( #236 ) ) ;
#68 = VERTEX_POINT ( 'NONE', #638 ) ;
#69 = CARTESIAN_POINT ( 'NONE',  ( -17.58031569682408701, 8.000000000000000000, -10.14999999999998614 ) ) ;
#70 = EDGE_CURVE ( 'NONE', #88, #840, #86, .T. ) ;
#71 = CARTESIAN_POINT ( 'NONE',  ( 2.944486372867097135, 8.000012000000001677, -55.89999999999999147 ) ) ;
#72 = DIRECTION ( 'NONE',  ( 1.000000000000000000, 0.000000000000000000, 0.000000000000000000 ) ) ;
#73 = CARTESIAN_POINT ( 'NONE',  ( 19.05000000000000071, 0.000000000000000000, -12.69999999999999929 ) ) ;
#74 = DIRECTION ( 'NONE',  ( -0.000000000000000000, -1.000000000000000000, -0.000000000000000000 ) ) ;
#75 = CARTESIAN_POINT ( 'NONE',  ( -31.75000000000000000, 8.000000000000000000, -23.98359213500125975 ) ) ;
#76 = VECTOR ( 'NONE', #85, 1000.000000000000000 ) ;
#77 = CIRCLE ( 'NONE', #761, 6.000000000000000000 ) ;
#78 = EDGE_CURVE ( 'NONE', #741, #545, #561, .T. ) ;
#79 = CARTESIAN_POINT ( 'NONE',  ( 19.05000000000000071, 2.000000000000000000, -6.999999999999997335 ) ) ;
#80 = DIRECTION ( 'NONE',  ( 0.000000000000000000, 0.000000000000000000, 1.000000000000000000 ) ) ;
#81 = DIRECTION ( 'NONE',  ( 0.4999999999999996669, 0.000000000000000000, -0.8660254037844388186 ) ) ;
#82 = ORIENTED_EDGE ( 'NONE', *, *, #486, .F. ) ;
#83 = CARTESIAN_POINT ( 'NONE',  ( -25.75000000000000355, 8.000000000000000000, -6.000000000000000000 ) ) ;
#84 = EDGE_CURVE ( 'NONE', #748, #940, #355, .T. ) ;
#85 = DIRECTION ( 'NONE',  ( 0.000000000000000000, -1.000000000000000000, 0.000000000000000000 ) ) ;
#86 = LINE ( 'NONE', #964, #808 ) ;
#87 = ORIENTED_EDGE ( 'NONE', *, *, #147, .T. ) ;
#88 = VERTEX_POINT ( 'NONE', #75 ) ;
#89 = PLANE ( 'NONE',  #634 ) ;
#90 = LINE ( 'NONE', #167, #76 ) ;
#91 = ADVANCED_FACE ( 'NONE', ( #400 ), #565, .F. ) ;
#92 = CARTESIAN_POINT ( 'NONE',  ( -25.75000000000000355, 8.000000000000000000, 0.000000000000000000 ) ) ;
#93 = VECTOR ( 'NONE', #72, 1000.000000000000000 ) ;
#94 = EDGE_LOOP ( 'NONE', ( #184, #684, #82, #656 ) ) ;
#95 = ORIENTED_EDGE ( 'NONE', *, *, #811, .T. ) ;
#96 = DIRECTION ( 'NONE',  ( 0.000000000000000000, 0.000000000000000000, 1.000000000000000000 ) ) ;
#97 = AXIS2_PLACEMENT_3D ( 'NONE', #529, #111, #832 ) ;
#98 = CARTESIAN_POINT ( 'NONE',  ( -31.11656314599949624, 0.000000000000000000, -26.66687370800100609 ) ) ;
#99 = AXIS2_PLACEMENT_3D ( 'NONE', #482, #895, #637 ) ;
#100 = EDGE_CURVE ( 'NONE', #661, #596, #19, .T. ) ;
#101 = CARTESIAN_POINT ( 'NONE',  ( -19.05000000000000071, 8.000000000000000000, -12.69999999999999929 ) ) ;
#102 = EDGE_LOOP ( 'NONE', ( #903, #534, #769, #169, #763, #390 ) ) ;
#103 = ORIENTED_EDGE ( 'NONE', *, *, #56, .F. ) ;
#104 = CARTESIAN_POINT ( 'NONE',  ( 0.000000000000000000, 8.000000000000000000, 0.000000000000000000 ) ) ;
#105 = CARTESIAN_POINT ( 'NONE',  ( 3.796405077356795411E-16, 0.000000000000000000, -53.89999999999999858 ) ) ;
#106 = LINE ( 'NONE', #1007, #589 ) ;
#107 = EDGE_LOOP ( 'NONE', ( #937, #743, #491, #878, #352, #21, #691, #326, #268, #911, #103, #974 ) ) ;
#108 = ORIENTED_EDGE ( 'NONE', *, *, #1051, .T. ) ;
#109 = CARTESIAN_POINT ( 'NONE',  ( 19.05000000000000071, 0.000000000000000000, -12.69999999999999929 ) ) ;
#110 = DIRECTION ( 'NONE',  ( -0.000000000000000000, 1.000000000000000000, -0.000000000000000000 ) ) ;
#111 = DIRECTION ( 'NONE',  ( -0.000000000000000000, -1.000000000000000000, -0.000000000000000000 ) ) ;
#112 = ORIENTED_EDGE ( 'NONE', *, *, #960, .F. ) ;
#113 = ORIENTED_EDGE ( 'NONE', *, *, #200, .F. ) ;
#114 = EDGE_CURVE ( 'NONE', #897, #309, #66, .T. ) ;
#115 = FACE_BOUND ( 'NONE', #360, .T. ) ;
#116 = CIRCLE ( 'NONE', #846, 5.999999999999998224 ) ;
#117 = CARTESIAN_POINT ( 'NONE',  ( 19.05000000000000071, 8.000000000000000000, -12.69999999999999929 ) ) ;
#118 = CIRCLE ( 'NONE', #1031, 5.700000000000000178 ) ;
#119 = VECTOR ( 'NONE', #869, 1000.000000000000227 ) ;
#120 = DIRECTION ( 'NONE',  ( -0.000000000000000000, -1.000000000000000000, -0.000000000000000000 ) ) ;
#121 = VERTEX_POINT ( 'NONE', #351 ) ;
#122 = ORIENTED_EDGE ( 'NONE', *, *, #470, .T. ) ;
#123 = DIRECTION ( 'NONE',  ( 0.000000000000000000, 0.000000000000000000, 1.000000000000000000 ) ) ;
#124 = LINE ( 'NONE', #513, #540 ) ;
#125 = DIRECTION ( 'NONE',  ( 0.000000000000000000, -1.000000000000000000, 0.000000000000000000 ) ) ;
#126 = EDGE_LOOP ( 'NONE', ( #142, #726, #516, #443 ) ) ;
#127 = ORIENTED_EDGE ( 'NONE', *, *, #70, .T. ) ;
#128 = LINE ( 'NONE', #701, #395 ) ;
#129 = CARTESIAN_POINT ( 'NONE',  ( 2.944486372867097135, 8.000000000000000000, -55.89999999999999147 ) ) ;
#130 = CARTESIAN_POINT ( 'NONE',  ( -2.944486372867099355, 2.000000000000000000, -45.69999999999998863 ) ) ;
#131 = EDGE_CURVE ( 'NONE', #674, #476, #1046, .T. ) ;
#132 = ORIENTED_EDGE ( 'NONE', *, *, #78, .T. ) ;
#133 = CARTESIAN_POINT ( 'NONE',  ( 25.75000000000000355, 8.000000000000000000, 0.000000000000000000 ) ) ;
#134 = CIRCLE ( 'NONE', #722, 5.700000000000000178 ) ;
#135 = CARTESIAN_POINT ( 'NONE',  ( 8.991796067500629874, 8.000000000000000000, -63.50000000000000000 ) ) ;
#136 = AXIS2_PLACEMENT_3D ( 'NONE', #481, #975, #965 ) ;
#137 = EDGE_CURVE ( 'NONE', #596, #413, #421, .T. ) ;
#138 = ORIENTED_EDGE ( 'NONE', *, *, #432, .F. ) ;
#139 = CARTESIAN_POINT ( 'NONE',  ( 0.000000000000000000, 2.000000000000000000, -50.79999999999999716 ) ) ;
#140 = CARTESIAN_POINT ( 'NONE',  ( -19.05000000000000071, 8.000000000000000000, -6.999999999999999112 ) ) ;
#141 = DIRECTION ( 'NONE',  ( 0.000000000000000000, -1.000000000000000000, 0.000000000000000000 ) ) ;
#142 = ORIENTED_EDGE ( 'NONE', *, *, #131, .F. ) ;
#143 = EDGE_CURVE ( 'NONE', #1009, #9, #473, .T. ) ;
#144 = CARTESIAN_POINT ( 'NONE',  ( -25.75000000000000355, 8.000000000000000000, -23.98359213500125975 ) ) ;
#145 = ORIENTED_EDGE ( 'NONE', *, *, #486, .T. ) ;
#146 = CARTESIAN_POINT ( 'NONE',  ( -5.888972745734182723, 2.000000000000000000, -50.79999999999997584 ) ) ;
#147 = EDGE_CURVE ( 'NONE', #413, #841, #106, .T. ) ;
#148 = CARTESIAN_POINT ( 'NONE',  ( -14.35835921350012079, 0.000000000000000000, -60.18328157299975345 ) ) ;
#149 = ORIENTED_EDGE ( 'NONE', *, *, #285, .F. ) ;
#150 = FACE_OUTER_BOUND ( 'NONE', #448, .T. ) ;
#151 = AXIS2_PLACEMENT_3D ( 'NONE', #35, #1006, #282 ) ;
#152 = VECTOR ( 'NONE', #660, 1000.000000000000000 ) ;
#153 = CARTESIAN_POINT ( 'NONE',  ( 19.05000000000000071, 2.000000000000000000, -12.69999999999999929 ) ) ;
#154 = ORIENTED_EDGE ( 'NONE', *, *, #331, .T. ) ;
#155 = CARTESIAN_POINT ( 'NONE',  ( -2.944486372867099355, 2.000000000000000000, -45.69999999999998863 ) ) ;
#156 = CARTESIAN_POINT ( 'NONE',  ( 12.69999999999999929, 8.000000000000000000, -63.50000000000000000 ) ) ;
#157 = PLANE ( 'NONE',  #693 ) ;
#158 = EDGE_CURVE ( 'NONE', #68, #170, #989, .T. ) ;
#159 = DIRECTION ( 'NONE',  ( -0.000000000000000000, 1.000000000000000000, -0.000000000000000000 ) ) ;
#160 = LINE ( 'NONE', #798, #946 ) ;
#161 = CARTESIAN_POINT ( 'NONE',  ( 5.888972745734193381, 2.000000000000000000, -50.79999999999999005 ) ) ;
#162 = DIRECTION ( 'NONE',  ( 0.000000000000000000, 0.000000000000000000, 1.000000000000000000 ) ) ;
#163 = VECTOR ( 'NONE', #57, 1000.000000000000000 ) ;
#164 = ADVANCED_FACE ( 'NONE', ( #909 ), #188, .T. ) ;
#165 = AXIS2_PLACEMENT_3D ( 'NONE', #1005, #668, #749 ) ;
#166 = FACE_OUTER_BOUND ( 'NONE', #998, .T. ) ;
#167 = CARTESIAN_POINT ( 'NONE',  ( 8.991796067500629874, 8.000000000000000000, -63.50000000000000000 ) ) ;
#168 = ORIENTED_EDGE ( 'NONE', *, *, #306, .F. ) ;
#169 = ORIENTED_EDGE ( 'NONE', *, *, #194, .T. ) ;
#170 = VERTEX_POINT ( 'NONE', #509 ) ;
#171 = EDGE_CURVE ( 'NONE', #9, #871, #751, .T. ) ;
#172 = DIRECTION ( 'NONE',  ( -0.4472135954999579277, -0.000000000000000000, -0.8944271909999158554 ) ) ;
#173 = DIRECTION ( 'NONE',  ( 0.000000000000000000, 0.000000000000000000, 1.000000000000000000 ) ) ;
#174 = ORIENTED_EDGE ( 'NONE', *, *, #131, .T. ) ;
#175 = ORIENTED_EDGE ( 'NONE', *, *, #369, .T. ) ;
#176 = EDGE_LOOP ( 'NONE', ( #582, #138, #20, #449 ) ) ;
#177 = CARTESIAN_POINT ( 'NONE',  ( 5.888972745734193381, 8.000012000000001677, -50.79999999999999005 ) ) ;
#178 = EDGE_CURVE ( 'NONE', #575, #497, #485, .T. ) ;
#179 = DIRECTION ( 'NONE',  ( 0.000000000000000000, -1.000000000000000000, 0.000000000000000000 ) ) ;
#180 = AXIS2_PLACEMENT_3D ( 'NONE', #1033, #453, #44 ) ;
#181 = CARTESIAN_POINT ( 'NONE',  ( 17.58031569682409057, 8.000000000000000000, -10.14999999999999147 ) ) ;
#182 = AXIS2_PLACEMENT_3D ( 'NONE', #938, #224, #53 ) ;
#183 = EDGE_LOOP ( 'NONE', ( #991, #154, #1004, #466 ) ) ;
#184 = ORIENTED_EDGE ( 'NONE', *, *, #178, .F. ) ;
#185 = DIRECTION ( 'NONE',  ( 1.000000000000000000, -0.000000000000000000, 0.000000000000000000 ) ) ;
#186 = AXIS2_PLACEMENT_3D ( 'NONE', #1001, #278, #845 ) ;
#187 = CARTESIAN_POINT ( 'NONE',  ( 0.000000000000000000, 2.000000000000000000, 0.000000000000000000 ) ) ;
#188 = PLANE ( 'NONE',  #825 ) ;
#189 = EDGE_LOOP ( 'NONE', ( #266, #55 ) ) ;
#190 = ORIENTED_EDGE ( 'NONE', *, *, #778, .F. ) ;
#191 = DIRECTION ( 'NONE',  ( 1.000000000000000000, 0.000000000000000000, 0.000000000000000000 ) ) ;
#192 = PLANE ( 'NONE',  #958 ) ;
#193 = FACE_OUTER_BOUND ( 'NONE', #38, .T. ) ;
#194 = EDGE_CURVE ( 'NONE', #956, #803, #208, .T. ) ;
#195 = ORIENTED_EDGE ( 'NONE', *, *, #422, .F. ) ;
#196 = ORIENTED_EDGE ( 'NONE', *, *, #271, .F. ) ;
#197 = DIRECTION ( 'NONE',  ( -1.000000000000000000, 0.000000000000000000, 0.000000000000000000 ) ) ;
#198 = DIRECTION ( 'NONE',  ( 0.000000000000000000, 1.000000000000000000, 0.000000000000000000 ) ) ;
#199 = CARTESIAN_POINT ( 'NONE',  ( 8.991796067500629874, 0.000000000000000000, -57.50000000000000000 ) ) ;
#200 = EDGE_CURVE ( 'NONE', #476, #674, #118, .T. ) ;
#201 = ORIENTED_EDGE ( 'NONE', *, *, #237, .F. ) ;
#202 = VERTEX_POINT ( 'NONE', #363 ) ;
#203 = VECTOR ( 'NONE', #863, 1000.000000000000000 ) ;
#204 = PRODUCT_DEFINITION_SHAPE ( 'NONE', 'NONE',  #892 ) ;
#205 = FACE_OUTER_BOUND ( 'NONE', #623, .T. ) ;
#206 = AXIS2_PLACEMENT_3D ( 'NONE', #101, #920, #346 ) ;
#207 = VECTOR ( 'NONE', #856, 1000.000000000000000 ) ;
#208 = LINE ( 'NONE', #181, #890 ) ;
#209 = ORIENTED_EDGE ( 'NONE', *, *, #970, .T. ) ;
#210 = VERTEX_POINT ( 'NONE', #914 ) ;
#211 = ADVANCED_FACE ( 'NONE', ( #193 ), #41, .T. ) ;
#212 = CARTESIAN_POINT ( 'NONE',  ( -8.991796067500629874, 0.000000000000000000, -63.50000000000000000 ) ) ;
#213 = CYLINDRICAL_SURFACE ( 'NONE', #249, 6.000000000000000000 ) ;
#214 = ORIENTED_EDGE ( 'NONE', *, *, #331, .F. ) ;
#215 = DIRECTION ( 'NONE',  ( 0.000000000000000000, 1.000000000000000000, 0.000000000000000000 ) ) ;
#216 = CARTESIAN_POINT ( 'NONE',  ( -8.991796067500629874, 8.000000000000000000, -57.50000000000000000 ) ) ;
#217 = ORIENTED_EDGE ( 'NONE', *, *, #458, .F. ) ;
#218 = DIRECTION ( 'NONE',  ( 0.000000000000000000, 0.000000000000000000, -1.000000000000000000 ) ) ;
#219 = VECTOR ( 'NONE', #393, 1000.000000000000114 ) ;
#220 = LINE ( 'NONE', #146, #119 ) ;
#221 = AXIS2_PLACEMENT_3D ( 'NONE', #955, #888, #805 ) ;
#222 = VECTOR ( 'NONE', #253, 1000.000000000000000 ) ;
#223 = VERTEX_POINT ( 'NONE', #606 ) ;
#224 = DIRECTION ( 'NONE',  ( -0.000000000000000000, -1.000000000000000000, -0.000000000000000000 ) ) ;
#225 = CARTESIAN_POINT ( 'NONE',  ( 25.75000000000000355, 8.000000000000000000, 0.000000000000000000 ) ) ;
#226 = ADVANCED_FACE ( 'NONE', ( #838, #759 ), #1013, .T. ) ;
#227 = LINE ( 'NONE', #40, #203 ) ;
#228 = CARTESIAN_POINT ( 'NONE',  ( 14.35835921350012434, 8.000000000000000000, -60.18328157299975345 ) ) ;
#229 = DIRECTION ( 'NONE',  ( -0.000000000000000000, 1.000000000000000000, -0.000000000000000000 ) ) ;
#230 = EDGE_CURVE ( 'NONE', #1003, #15, #501, .T. ) ;
#231 = EDGE_LOOP ( 'NONE', ( #591, #1022 ) ) ;
#232 = LINE ( 'NONE', #644, #93 ) ;
#233 = VECTOR ( 'NONE', #844, 1000.000000000000000 ) ;
#234 = PRESENTATION_LAYER_ASSIGNMENT (  '', '', ( #724 ) ) ;
#235 = CLOSED_SHELL ( 'NONE', ( #922, #721, #629, #877, #712, #392, #986, #993, #843, #446, #36, #408, #1023, #272, #1008, #364, #349, #313, #211, #294, #882, #703, #356, #91, #226, #584, #538, #500, #1019, #428, #323, #62, #164 ) ) ;
#236 = SURFACE_STYLE_FILL_AREA ( #795 ) ;
#237 = EDGE_CURVE ( 'NONE', #1017, #517, #12, .T. ) ;
#238 = DIRECTION ( 'NONE',  ( 0.4472135954999579277, 0.000000000000000000, -0.8944271909999158554 ) ) ;
#239 = ORIENTED_EDGE ( 'NONE', *, *, #833, .F. ) ;
#240 = DIRECTION ( 'NONE',  ( 0.000000000000000000, 0.000000000000000000, -1.000000000000000000 ) ) ;
#241 = LINE ( 'NONE', #155, #27 ) ;
#242 = DIRECTION ( 'NONE',  ( -0.000000000000000000, -0.000000000000000000, 1.000000000000000000 ) ) ;
#243 = CARTESIAN_POINT ( 'NONE',  ( -31.11656314599949624, 8.000000000000000000, -26.66687370800100609 ) ) ;
#244 = LINE ( 'NONE', #488, #219 ) ;
#245 = DIRECTION ( 'NONE',  ( 1.000000000000000000, 0.000000000000000000, -0.000000000000000000 ) ) ;
#246 = VECTOR ( 'NONE', #837, 1000.000000000000000 ) ;
#247 = EDGE_CURVE ( 'NONE', #971, #956, #767, .T. ) ;
#248 = VERTEX_POINT ( 'NONE', #617 ) ;
#249 = AXIS2_PLACEMENT_3D ( 'NONE', #788, #797, #537 ) ;
#250 = VERTEX_POINT ( 'NONE', #467 ) ;
#251 = DIRECTION ( 'NONE',  ( -1.000000000000000000, -0.000000000000000000, -0.000000000000000000 ) ) ;
#252 = CARTESIAN_POINT ( 'NONE',  ( 0.000000000000000000, 0.000000000000000000, -47.70000000000000284 ) ) ;
#253 = DIRECTION ( 'NONE',  ( -0.000000000000000000, 1.000000000000000000, -0.000000000000000000 ) ) ;
#254 = EDGE_CURVE ( 'NONE', #293, #821, #47, .T. ) ;
#255 = ORIENTED_EDGE ( 'NONE', *, *, #621, .F. ) ;
#256 = VERTEX_POINT ( 'NONE', #130 ) ;
#257 = CARTESIAN_POINT ( 'NONE',  ( 31.11656314599949624, 8.000000000000000000, -26.66687370800100609 ) ) ;
#258 = DIRECTION ( 'NONE',  ( 0.000000000000000000, 1.000000000000000000, 0.000000000000000000 ) ) ;
#259 = LINE ( 'NONE', #730, #1015 ) ;
#260 = ORIENTED_EDGE ( 'NONE', *, *, #818, .T. ) ;
#261 = EDGE_LOOP ( 'NONE', ( #149, #618, #1035, #784 ) ) ;
#262 = PLANE ( 'NONE',  #941 ) ;
#263 = CARTESIAN_POINT ( 'NONE',  ( 31.75000000000000000, 0.000000000000000000, -23.98359213500125975 ) ) ;
#264 = DIRECTION ( 'NONE',  ( -0.4999999999999996669, 0.000000000000000000, 0.8660254037844388186 ) ) ;
#265 = CIRCLE ( 'NONE', #288, 5.700000000000001954 ) ;
#266 = ORIENTED_EDGE ( 'NONE', *, *, #84, .T. ) ;
#267 = AXIS2_PLACEMENT_3D ( 'NONE', #904, #675, #425 ) ;
#268 = ORIENTED_EDGE ( 'NONE', *, *, #970, .F. ) ;
#269 = CARTESIAN_POINT ( 'NONE',  ( -19.05000000000000071, 0.000000000000000000, -15.79999999999999893 ) ) ;
#270 = DIRECTION ( 'NONE',  ( 0.000000000000000000, 0.000000000000000000, 1.000000000000000000 ) ) ;
#271 = EDGE_CURVE ( 'NONE', #596, #971, #628, .T. ) ;
#272 = ADVANCED_FACE ( 'NONE', ( #864 ), #792, .F. ) ;
#273 = DIRECTION ( 'NONE',  ( 0.000000000000000000, 0.000000000000000000, 1.000000000000000000 ) ) ;
#274 = ORIENTED_EDGE ( 'NONE', *, *, #394, .T. ) ;
#275 = ORIENTED_EDGE ( 'NONE', *, *, #143, .F. ) ;
#276 = DIRECTION ( 'NONE',  ( -0.000000000000000000, 1.000000000000000000, -0.000000000000000000 ) ) ;
#277 = DIRECTION ( 'NONE',  ( 0.000000000000000000, 1.000000000000000000, 0.000000000000000000 ) ) ;
#278 = DIRECTION ( 'NONE',  ( 0.000000000000000000, 1.000000000000000000, 0.000000000000000000 ) ) ;
#279 = ORIENTED_EDGE ( 'NONE', *, *, #790, .F. ) ;
#280 = EDGE_LOOP ( 'NONE', ( #145, #108 ) ) ;
#281 = FACE_OUTER_BOUND ( 'NONE', #495, .T. ) ;
#282 = DIRECTION ( 'NONE',  ( 0.000000000000000000, 0.000000000000000000, 1.000000000000000000 ) ) ;
#283 = CARTESIAN_POINT ( 'NONE',  ( 25.75000000000000355, 8.000000000000000000, -23.98359213500125975 ) ) ;
#284 = CIRCLE ( 'NONE', #329, 3.099999999999998757 ) ;
#285 = EDGE_CURVE ( 'NONE', #545, #293, #827, .T. ) ;
#286 = ORIENTED_EDGE ( 'NONE', *, *, #728, .T. ) ;
#287 = ORIENTED_EDGE ( 'NONE', *, *, #734, .T. ) ;
#288 = AXIS2_PLACEMENT_3D ( 'NONE', #546, #379, #61 ) ;
#289 = AXIS2_PLACEMENT_3D ( 'NONE', #949, #708, #295 ) ;
#290 = CARTESIAN_POINT ( 'NONE',  ( 25.75000000000000355, 0.000000000000000000, -23.98359213500125975 ) ) ;
#291 = AXIS2_PLACEMENT_3D ( 'NONE', #199, #120, #441 ) ;
#292 = CARTESIAN_POINT ( 'NONE',  ( 19.05000000000000071, 2.000000000000000000, -12.69999999999999929 ) ) ;
#293 = VERTEX_POINT ( 'NONE', #777 ) ;
#294 = ADVANCED_FACE ( 'NONE', ( #150 ), #213, .T. ) ;
#295 = DIRECTION ( 'NONE',  ( 0.000000000000000000, 0.000000000000000000, 1.000000000000000000 ) ) ;
#296 = LINE ( 'NONE', #461, #876 ) ;
#297 = VERTEX_POINT ( 'NONE', #225 ) ;
#298 =( LENGTH_UNIT ( ) NAMED_UNIT ( * ) SI_UNIT ( .MILLI., .METRE. ) );
#299 = DIRECTION ( 'NONE',  ( 0.000000000000000000, 0.000000000000000000, 1.000000000000000000 ) ) ;
#300 = FACE_BOUND ( 'NONE', #16, .T. ) ;
#301 = CIRCLE ( 'NONE', #180, 6.000000000000000000 ) ;
#302 = ORIENTED_EDGE ( 'NONE', *, *, #470, .F. ) ;
#303 = LINE ( 'NONE', #455, #739 ) ;
#304 = VECTOR ( 'NONE', #308, 1000.000000000000000 ) ;
#305 = CARTESIAN_POINT ( 'NONE',  ( 8.991796067500629874, 8.000000000000000000, -57.50000000000000000 ) ) ;
#306 = EDGE_CURVE ( 'NONE', #680, #223, #389, .T. ) ;
#307 = DIRECTION ( 'NONE',  ( 0.8660254037844387076, 0.000000000000000000, -0.4999999999999999445 ) ) ;
#308 = DIRECTION ( 'NONE',  ( 0.000000000000000000, -1.000000000000000000, 0.000000000000000000 ) ) ;
#309 = VERTEX_POINT ( 'NONE', #695 ) ;
#310 = CARTESIAN_POINT ( 'NONE',  ( 31.75000000000000000, 8.000000000000000000, -5.999999999999998224 ) ) ;
#311 = EDGE_LOOP ( 'NONE', ( #603, #829, #175, #42 ) ) ;
#312 = DIRECTION ( 'NONE',  ( 0.000000000000000000, 1.000000000000000000, 0.000000000000000000 ) ) ;
#313 = ADVANCED_FACE ( 'NONE', ( #943 ), #1021, .T. ) ;
#314 = CARTESIAN_POINT ( 'NONE',  ( -19.05000000000000071, 0.000000000000000000, -9.600000000000001421 ) ) ;
#315 = CIRCLE ( 'NONE', #554, 3.099999999999998757 ) ;
#316 = CIRCLE ( 'NONE', #625, 5.999999999999998224 ) ;
#317 = AXIS2_PLACEMENT_3D ( 'NONE', #54, #312, #936 ) ;
#318 = SURFACE_STYLE_USAGE ( .BOTH. , #67 ) ;
#319 = FACE_OUTER_BOUND ( 'NONE', #33, .T. ) ;
#320 = EDGE_LOOP ( 'NONE', ( #649, #820, #747, #337 ) ) ;
#321 = CARTESIAN_POINT ( 'NONE',  ( -12.69999999999999929, 0.000000000000000000, -63.50000000000000000 ) ) ;
#322 = CARTESIAN_POINT ( 'NONE',  ( 12.69999999999999929, 8.000000000000000000, -63.50000000000000000 ) ) ;
#323 = ADVANCED_FACE ( 'NONE', ( #711 ), #547, .T. ) ;
#324 = LINE ( 'NONE', #580, #222 ) ;
#325 = UNCERTAINTY_MEASURE_WITH_UNIT (LENGTH_MEASURE( 1.000000000000000082E-05 ), #639, 'distance_accuracy_value', 'NONE');
#326 = ORIENTED_EDGE ( 'NONE', *, *, #740, .T. ) ;
#327 = ORIENTED_EDGE ( 'NONE', *, *, #254, .T. ) ;
#328 = DIRECTION ( 'NONE',  ( 0.000000000000000000, -1.000000000000000000, 0.000000000000000000 ) ) ;
#329 = AXIS2_PLACEMENT_3D ( 'NONE', #139, #444, #463 ) ;
#330 = DIRECTION ( 'NONE',  ( -0.000000000000000000, 1.000000000000000000, -0.000000000000000000 ) ) ;
#331 = EDGE_CURVE ( 'NONE', #504, #248, #296, .T. ) ;
#332 = DIRECTION ( 'NONE',  ( -0.000000000000000000, -1.000000000000000000, 0.000000000000000000 ) ) ;
#333 = CIRCLE ( 'NONE', #414, 5.700000000000001954 ) ;
#334 = VECTOR ( 'NONE', #569, 1000.000000000000000 ) ;
#335 = EDGE_LOOP ( 'NONE', ( #735, #1026, #423, #653 ) ) ;
#336 = VECTOR ( 'NONE', #377, 1000.000000000000000 ) ;
#337 = ORIENTED_EDGE ( 'NONE', *, *, #394, .F. ) ;
#338 = CARTESIAN_POINT ( 'NONE',  ( -19.05000000000000071, 2.000000000000000000, -12.69999999999999929 ) ) ;
#339 = DIRECTION ( 'NONE',  ( -0.000000000000000000, 1.000000000000000000, -0.000000000000000000 ) ) ;
#340 = ORIENTED_EDGE ( 'NONE', *, *, #800, .F. ) ;
#341 = ORIENTED_EDGE ( 'NONE', *, *, #954, .F. ) ;
#342 = EDGE_CURVE ( 'NONE', #170, #256, #220, .T. ) ;
#343 = ORIENTED_EDGE ( 'NONE', *, *, #655, .T. ) ;
#344 = FACE_OUTER_BOUND ( 'NONE', #796, .T. ) ;
#345 = DIRECTION ( 'NONE',  ( 0.000000000000000000, 0.000000000000000000, 1.000000000000000000 ) ) ;
#346 = DIRECTION ( 'NONE',  ( 0.000000000000000000, 0.000000000000000000, 1.000000000000000000 ) ) ;
#347 = ORIENTED_EDGE ( 'NONE', *, *, #908, .F. ) ;
#348 = EDGE_LOOP ( 'NONE', ( #510, #490 ) ) ;
#349 = ADVANCED_FACE ( 'NONE', ( #384 ), #872, .T. ) ;
#350 = DIRECTION ( 'NONE',  ( -0.4999999999999998335, 0.000000000000000000, 0.8660254037844387076 ) ) ;
#351 = CARTESIAN_POINT ( 'NONE',  ( -19.05000000000000071, 2.000000000000000000, -18.39999999999999858 ) ) ;
#352 = ORIENTED_EDGE ( 'NONE', *, *, #601, .F. ) ;
#353 = VERTEX_POINT ( 'NONE', #228 ) ;
#354 = FACE_OUTER_BOUND ( 'NONE', #714, .T. ) ;
#355 = CIRCLE ( 'NONE', #30, 3.099999999999998757 ) ;
#356 = ADVANCED_FACE ( 'NONE', ( #699, #715 ), #1040, .T. ) ;
#357 = LINE ( 'NONE', #988, #233 ) ;
#358 = DIRECTION ( 'NONE',  ( 0.000000000000000000, -1.000000000000000000, 0.000000000000000000 ) ) ;
#359 = VERTEX_POINT ( 'NONE', #135 ) ;
#360 = EDGE_LOOP ( 'NONE', ( #429, #174 ) ) ;
#361 = DIRECTION ( 'NONE',  ( 0.000000000000000000, 0.000000000000000000, 1.000000000000000000 ) ) ;
#362 = CARTESIAN_POINT ( 'NONE',  ( -8.991796067500629874, 8.000000000000000000, -63.50000000000000000 ) ) ;
#363 = CARTESIAN_POINT ( 'NONE',  ( 3.796405077356795411E-16, 2.000000000000000000, -53.89999999999999858 ) ) ;
#364 = ADVANCED_FACE ( 'NONE', ( #380, #1025, #300, #622 ), #704, .F. ) ;
#365 = ORIENTED_EDGE ( 'NONE', *, *, #677, .T. ) ;
#366 = ORIENTED_EDGE ( 'NONE', *, *, #544, .F. ) ;
#367 = CARTESIAN_POINT ( 'NONE',  ( -31.75000000000000000, 8.000000000000000000, 0.000000000000000000 ) ) ;
#368 = DIRECTION ( 'NONE',  ( 0.000000000000000000, -1.000000000000000000, 0.000000000000000000 ) ) ;
#369 = EDGE_CURVE ( 'NONE', #309, #602, #802, .T. ) ;
#370 = EDGE_LOOP ( 'NONE', ( #511, #274 ) ) ;
#371 = ORIENTED_EDGE ( 'NONE', *, *, #14, .F. ) ;
#372 = CIRCLE ( 'NONE', #8, 6.000000000000000000 ) ;
#373 = AXIS2_PLACEMENT_3D ( 'NONE', #83, #732, #240 ) ;
#374 = CARTESIAN_POINT ( 'NONE',  ( -8.991796067500629874, 0.000000000000000000, -57.50000000000000000 ) ) ;
#375 = AXIS2_PLACEMENT_3D ( 'NONE', #996, #687, #273 ) ;
#376 = VECTOR ( 'NONE', #358, 1000.000000000000000 ) ;
#377 = DIRECTION ( 'NONE',  ( 0.000000000000000000, -1.000000000000000000, 0.000000000000000000 ) ) ;
#378 = VERTEX_POINT ( 'NONE', #1052 ) ;
#379 = DIRECTION ( 'NONE',  ( 0.000000000000000000, 1.000000000000000000, 0.000000000000000000 ) ) ;
#380 = FACE_BOUND ( 'NONE', #189, .T. ) ;
#381 = ORIENTED_EDGE ( 'NONE', *, *, #342, .T. ) ;
#382 = EDGE_CURVE ( 'NONE', #497, #764, #963, .T. ) ;
#383 = DIRECTION ( 'NONE',  ( 0.000000000000000000, 0.000000000000000000, 1.000000000000000000 ) ) ;
#384 = FACE_OUTER_BOUND ( 'NONE', #261, .T. ) ;
#385 = LINE ( 'NONE', #489, #526 ) ;
#386 = DIRECTION ( 'NONE',  ( 0.000000000000000000, 0.000000000000000000, -1.000000000000000000 ) ) ;
#387 = CARTESIAN_POINT ( 'NONE',  ( -31.75000000000000000, 0.000000000000000000, -6.000000000000000000 ) ) ;
#388 = ORIENTED_EDGE ( 'NONE', *, *, #14, .T. ) ;
#389 = LINE ( 'NONE', #310, #336 ) ;
#390 = ORIENTED_EDGE ( 'NONE', *, *, #458, .T. ) ;
#391 = DIRECTION ( 'NONE',  ( 0.000000000000000000, 0.000000000000000000, -1.000000000000000000 ) ) ;
#392 = ADVANCED_FACE ( 'NONE', ( #560 ), #957, .F. ) ;
#393 = DIRECTION ( 'NONE',  ( 0.4999999999999997780, 0.000000000000000000, -0.8660254037844387076 ) ) ;
#394 = EDGE_CURVE ( 'NONE', #815, #917, #654, .T. ) ;
#395 = VECTOR ( 'NONE', #697, 1000.000000000000000 ) ;
#396 = DIRECTION ( 'NONE',  ( -1.000000000000000000, 0.000000000000000000, 0.000000000000000000 ) ) ;
#397 = CARTESIAN_POINT ( 'NONE',  ( -19.05000000000000071, 0.000000000000000000, -12.69999999999999929 ) ) ;
#398 = AXIS2_PLACEMENT_3D ( 'NONE', #144, #698, #1024 ) ;
#399 = VECTOR ( 'NONE', #197, 1000.000000000000000 ) ;
#400 = FACE_OUTER_BOUND ( 'NONE', #700, .T. ) ;
#401 = PRODUCT_DEFINITION_CONTEXT ( 'detailed design', #716, 'design' ) ;
#402 = AXIS2_PLACEMENT_3D ( 'NONE', #462, #6, #245 ) ;
#403 = DIRECTION ( 'NONE',  ( 0.000000000000000000, 0.000000000000000000, 1.000000000000000000 ) ) ;
#404 = LINE ( 'NONE', #314, #65 ) ;
#405 = EDGE_LOOP ( 'NONE', ( #260, #1 ) ) ;
#406 = ORIENTED_EDGE ( 'NONE', *, *, #772, .F. ) ;
#407 = DIRECTION ( 'NONE',  ( 0.000000000000000000, 0.000000000000000000, 1.000000000000000000 ) ) ;
#408 = ADVANCED_FACE ( 'NONE', ( #641 ), #157, .F. ) ;
#409 = CARTESIAN_POINT ( 'NONE',  ( -19.05000000000000071, 8.000000000000000000, -18.39999999999999858 ) ) ;
#410 = ORIENTED_EDGE ( 'NONE', *, *, #689, .F. ) ;
#411 = ORIENTED_EDGE ( 'NONE', *, *, #933, .T. ) ;
#412 = DIRECTION ( 'NONE',  ( -0.8660254037844387076, 0.000000000000000000, -0.4999999999999998335 ) ) ;
#413 = VERTEX_POINT ( 'NONE', #161 ) ;
#414 = AXIS2_PLACEMENT_3D ( 'NONE', #153, #713, #407 ) ;
#415 = EDGE_CURVE ( 'NONE', #940, #748, #786, .T. ) ;
#416 = AXIS2_PLACEMENT_3D ( 'NONE', #338, #518, #361 ) ;
#417 = ORIENTED_EDGE ( 'NONE', *, *, #728, .F. ) ;
#418 = EDGE_LOOP ( 'NONE', ( #424, #980, #406, #524 ) ) ;
#419 = CARTESIAN_POINT ( 'NONE',  ( 19.05000000000000071, 8.000000000000000000, -18.39999999999999858 ) ) ;
#420 = LINE ( 'NONE', #18, #607 ) ;
#421 = LINE ( 'NONE', #746, #794 ) ;
#422 = EDGE_CURVE ( 'NONE', #748, #917, #404, .T. ) ;
#423 = ORIENTED_EDGE ( 'NONE', *, *, #811, .F. ) ;
#424 = ORIENTED_EDGE ( 'NONE', *, *, #577, .T. ) ;
#425 = DIRECTION ( 'NONE',  ( 0.000000000000000000, 0.000000000000000000, -1.000000000000000000 ) ) ;
#426 = CARTESIAN_POINT ( 'NONE',  ( 19.05000000000000071, 8.000012000000001677, -12.69999999999999929 ) ) ;
#427 = DIRECTION ( 'NONE',  ( -1.000000000000000000, 0.000000000000000000, -1.178285959793847375E-15 ) ) ;
#428 = ADVANCED_FACE ( 'NONE', ( #319 ), #567, .T. ) ;
#429 = ORIENTED_EDGE ( 'NONE', *, *, #200, .T. ) ;
#430 = ORIENTED_EDGE ( 'NONE', *, *, #908, .T. ) ;
#431 = CARTESIAN_POINT ( 'NONE',  ( 19.05000000000000071, 0.000000000000000000, -15.79999999999999893 ) ) ;
#432 = EDGE_CURVE ( 'NONE', #256, #25, #241, .T. ) ;
#433 = LINE ( 'NONE', #758, #706 ) ;
#434 = AXIS2_PLACEMENT_3D ( 'NONE', #598, #918, #96 ) ;
#435 = DIRECTION ( 'NONE',  ( 1.178285959793847375E-15, 0.000000000000000000, -1.000000000000000000 ) ) ;
#436 = ORIENTED_EDGE ( 'NONE', *, *, #755, .T. ) ;
#437 = EDGE_LOOP ( 'NONE', ( #13, #662, #710, #196 ) ) ;
#438 = FACE_BOUND ( 'NONE', #848, .T. ) ;
#439 = EDGE_CURVE ( 'NONE', #297, #680, #372, .T. ) ;
#440 = CARTESIAN_POINT ( 'NONE',  ( -14.35835921350012434, 8.000000000000000000, -60.18328157299975345 ) ) ;
#441 = DIRECTION ( 'NONE',  ( 0.000000000000000000, 0.000000000000000000, 1.000000000000000000 ) ) ;
#442 = ORIENTED_EDGE ( 'NONE', *, *, #944, .F. ) ;
#443 = ORIENTED_EDGE ( 'NONE', *, *, #915, .F. ) ;
#444 = DIRECTION ( 'NONE',  ( -0.000000000000000000, -1.000000000000000000, -0.000000000000000000 ) ) ;
#445 = CARTESIAN_POINT ( 'NONE',  ( 19.05000000000000071, 8.000012000000001677, -18.39999999999999858 ) ) ;
#446 = ADVANCED_FACE ( 'NONE', ( #1043 ), #11, .F. ) ;
#447 = CARTESIAN_POINT ( 'NONE',  ( -19.05000000000000071, 8.000000000000000000, -12.69999999999999929 ) ) ;
#448 = EDGE_LOOP ( 'NONE', ( #590, #340, #51, #168 ) ) ;
#449 = ORIENTED_EDGE ( 'NONE', *, *, #247, .F. ) ;
#450 = CARTESIAN_POINT ( 'NONE',  ( 31.75000000000000000, 8.000000000000000000, -5.999999999999998224 ) ) ;
#451 = DIRECTION ( 'NONE',  ( -0.4999999999999998335, 0.000000000000000000, 0.8660254037844387076 ) ) ;
#452 = VERTEX_POINT ( 'NONE', #563 ) ;
#453 = DIRECTION ( 'NONE',  ( -0.000000000000000000, -1.000000000000000000, -0.000000000000000000 ) ) ;
#454 = AXIS2_PLACEMENT_3D ( 'NONE', #426, #499, #745 ) ;
#455 = CARTESIAN_POINT ( 'NONE',  ( -19.05000000000000071, 0.000000000000000000, -15.79999999999999893 ) ) ;
#456 = VECTOR ( 'NONE', #665, 999.9999999999998863 ) ;
#457 = DIRECTION ( 'NONE',  ( 0.000000000000000000, 0.000000000000000000, -1.000000000000000000 ) ) ;
#458 = EDGE_CURVE ( 'NONE', #853, #661, #232, .T. ) ;
#459 = ORIENTED_EDGE ( 'NONE', *, *, #137, .F. ) ;
#460 = LINE ( 'NONE', #367, #483 ) ;
#461 = CARTESIAN_POINT ( 'NONE',  ( 31.75000000000000000, 8.000000000000000000, -23.98359213500125975 ) ) ;
#462 = CARTESIAN_POINT ( 'NONE',  ( -12.69999999999999929, 8.000000000000000000, -63.50000000000000000 ) ) ;
#463 = DIRECTION ( 'NONE',  ( 0.000000000000000000, 0.000000000000000000, 1.000000000000000000 ) ) ;
#464 = EDGE_CURVE ( 'NONE', #25, #413, #244, .T. ) ;
#465 = CYLINDRICAL_SURFACE ( 'NONE', #992, 3.099999999999998757 ) ;
#466 = ORIENTED_EDGE ( 'NONE', *, *, #306, .T. ) ;
#467 = CARTESIAN_POINT ( 'NONE',  ( -25.75000000000000355, 0.000000000000000000, 0.000000000000000000 ) ) ;
#468 = DIRECTION ( 'NONE',  ( -0.000000000000000000, 1.000000000000000000, -0.000000000000000000 ) ) ;
#469 = CIRCLE ( 'NONE', #289, 6.000000000000000000 ) ;
#470 = EDGE_CURVE ( 'NONE', #359, #1017, #90, .T. ) ;
#471 = ORIENTED_EDGE ( 'NONE', *, *, #1028, .T. ) ;
#472 = CARTESIAN_POINT ( 'NONE',  ( -31.75000000000000000, 8.000000000000000000, -25.39999999999999858 ) ) ;
#473 = CIRCLE ( 'NONE', #97, 5.700000000000001954 ) ;
#474 = AXIS2_PLACEMENT_3D ( 'NONE', #950, #479, #729 ) ;
#475 = CARTESIAN_POINT ( 'NONE',  ( -2.944486372867099355, 8.000012000000001677, -45.69999999999998863 ) ) ;
#476 = VERTEX_POINT ( 'NONE', #409 ) ;
#477 = DIRECTION ( 'NONE',  ( -0.8944271909999159664, 0.000000000000000000, 0.4472135954999579832 ) ) ;
#478 = DIRECTION ( 'NONE',  ( 0.000000000000000000, 0.000000000000000000, 1.000000000000000000 ) ) ;
#479 = DIRECTION ( 'NONE',  ( 0.000000000000000000, 1.000000000000000000, 0.000000000000000000 ) ) ;
#480 = CARTESIAN_POINT ( 'NONE',  ( -19.05000000000000071, 0.000000000000000000, -12.69999999999999929 ) ) ;
#481 = CARTESIAN_POINT ( 'NONE',  ( 0.000000000000000000, 0.000000000000000000, -50.79999999999999716 ) ) ;
#482 = CARTESIAN_POINT ( 'NONE',  ( 0.000000000000000000, 0.000000000000000000, -50.79999999999999716 ) ) ;
#483 = VECTOR ( 'NONE', #1020, 1000.000000000000000 ) ;
#484 = CARTESIAN_POINT ( 'NONE',  ( -19.05000000000000071, 8.000012000000001677, -12.69999999999999929 ) ) ;
#485 = CIRCLE ( 'NONE', #375, 3.099999999999998757 ) ;
#486 = EDGE_CURVE ( 'NONE', #764, #202, #1012, .T. ) ;
#487 = DIRECTION ( 'NONE',  ( -0.000000000000000000, 1.000000000000000000, -0.000000000000000000 ) ) ;
#488 = CARTESIAN_POINT ( 'NONE',  ( 2.944486372867099355, 2.000000000000000000, -45.69999999999998153 ) ) ;
#489 = CARTESIAN_POINT ( 'NONE',  ( -31.75000000000000000, 0.000000000000000000, 0.000000000000000000 ) ) ;
#490 = ORIENTED_EDGE ( 'NONE', *, *, #114, .T. ) ;
#491 = ORIENTED_EDGE ( 'NONE', *, *, #839, .F. ) ;
#492 = CARTESIAN_POINT ( 'NONE',  ( 8.991796067500629874, 0.000000000000000000, -63.50000000000000000 ) ) ;
#493 = PLANE ( 'NONE',  #46 ) ;
#494 = ORIENTED_EDGE ( 'NONE', *, *, #1028, .F. ) ;
#495 = EDGE_LOOP ( 'NONE', ( #902, #63, #327, #24, #287, #667, #286, #614, #847, #411, #95, #780 ) ) ;
#496 = APPLICATION_CONTEXT ( 'automotive_design' ) ;
#497 = VERTEX_POINT ( 'NONE', #252 ) ;
#498 = CARTESIAN_POINT ( 'NONE',  ( -31.75000000000000000, 0.000000000000000000, 0.000000000000000000 ) ) ;
#499 = DIRECTION ( 'NONE',  ( 0.000000000000000000, -1.000000000000000000, 0.000000000000000000 ) ) ;
#500 = ADVANCED_FACE ( 'NONE', ( #574 ), #493, .T. ) ;
#501 = LINE ( 'NONE', #31, #376 ) ;
#502 = CIRCLE ( 'NONE', #151, 5.999999999999998224 ) ;
#503 = VECTOR ( 'NONE', #1038, 1000.000000000000000 ) ;
#504 = VERTEX_POINT ( 'NONE', #263 ) ;
#505 = ORIENTED_EDGE ( 'NONE', *, *, #1037, .F. ) ;
#506 = DIRECTION ( 'NONE',  ( 0.000000000000000000, 0.000000000000000000, 1.000000000000000000 ) ) ;
#507 = EDGE_CURVE ( 'NONE', #971, #25, #1000, .T. ) ;
#508 = LINE ( 'NONE', #579, #873 ) ;
#509 = CARTESIAN_POINT ( 'NONE',  ( -5.888972745734182723, 2.000000000000000000, -50.79999999999997584 ) ) ;
#510 = ORIENTED_EDGE ( 'NONE', *, *, #515, .T. ) ;
#511 = ORIENTED_EDGE ( 'NONE', *, *, #944, .T. ) ;
#512 = CARTESIAN_POINT ( 'NONE',  ( 25.75000000000000355, 0.000000000000000000, 0.000000000000000000 ) ) ;
#513 = CARTESIAN_POINT ( 'NONE',  ( -31.75000000000000000, 0.000000000000000000, -25.39999999999999858 ) ) ;
#514 = DIRECTION ( 'NONE',  ( 0.000000000000000000, 0.000000000000000000, -1.000000000000000000 ) ) ;
#515 = EDGE_CURVE ( 'NONE', #309, #897, #315, .T. ) ;
#516 = ORIENTED_EDGE ( 'NONE', *, *, #677, .F. ) ;
#517 = VERTEX_POINT ( 'NONE', #982 ) ;
#518 = DIRECTION ( 'NONE',  ( -0.000000000000000000, -1.000000000000000000, -0.000000000000000000 ) ) ;
#519 = CYLINDRICAL_SURFACE ( 'NONE', #454, 5.700000000000000178 ) ;
#520 = DIRECTION ( 'NONE',  ( 0.000000000000000000, -0.000000000000000000, 1.000000000000000000 ) ) ;
#521 = VECTOR ( 'NONE', #669, 1000.000000000000000 ) ;
#522 = PRODUCT ( 'Flat Bracket', 'Flat Bracket', '', ( #934 ) ) ;
#523 = ORIENTED_EDGE ( 'NONE', *, *, #171, .F. ) ;
#524 = ORIENTED_EDGE ( 'NONE', *, *, #7, .F. ) ;
#525 = EDGE_CURVE ( 'NONE', #679, #556, #124, .T. ) ;
#526 = VECTOR ( 'NONE', #242, 1000.000000000000000 ) ;
#527 = AXIS2_PLACEMENT_3D ( 'NONE', #1029, #551, #533 ) ;
#528 = LINE ( 'NONE', #445, #521 ) ;
#529 = CARTESIAN_POINT ( 'NONE',  ( 19.05000000000000071, 8.000000000000000000, -12.69999999999999929 ) ) ;
#530 = VERTEX_POINT ( 'NONE', #824 ) ;
#531 = ORIENTED_EDGE ( 'NONE', *, *, #194, .F. ) ;
#532 = DIRECTION ( 'NONE',  ( -0.000000000000000000, -1.000000000000000000, -0.000000000000000000 ) ) ;
#533 = DIRECTION ( 'NONE',  ( -1.000000000000000000, 0.000000000000000000, -0.000000000000000000 ) ) ;
#534 = ORIENTED_EDGE ( 'NONE', *, *, #271, .T. ) ;
#535 =( NAMED_UNIT ( * ) SI_UNIT ( $, .STERADIAN. ) SOLID_ANGLE_UNIT ( ) );
#536 = DIRECTION ( 'NONE',  ( 0.000000000000000000, 1.000000000000000000, 0.000000000000000000 ) ) ;
#537 = DIRECTION ( 'NONE',  ( 0.000000000000000000, 0.000000000000000000, -1.000000000000000000 ) ) ;
#538 = ADVANCED_FACE ( 'NONE', ( #994, #599 ), #192, .T. ) ;
#539 = ORIENTED_EDGE ( 'NONE', *, *, #543, .F. ) ;
#540 = VECTOR ( 'NONE', #913, 1000.000000000000114 ) ;
#541 = CYLINDRICAL_SURFACE ( 'NONE', #398, 5.999999999999998224 ) ;
#542 = DIRECTION ( 'NONE',  ( 0.000000000000000000, 0.000000000000000000, 1.000000000000000000 ) ) ;
#543 = EDGE_CURVE ( 'NONE', #674, #210, #508, .T. ) ;
#544 = EDGE_CURVE ( 'NONE', #9, #1009, #1044, .T. ) ;
#545 = VERTEX_POINT ( 'NONE', #362 ) ;
#546 = CARTESIAN_POINT ( 'NONE',  ( 19.05000000000000071, 2.000000000000000000, -12.69999999999999929 ) ) ;
#547 = PLANE ( 'NONE',  #49 ) ;
#548 = EDGE_CURVE ( 'NONE', #1009, #530, #528, .T. ) ;
#549 = FACE_OUTER_BOUND ( 'NONE', #753, .T. ) ;
#550 = ORIENTED_EDGE ( 'NONE', *, *, #544, .T. ) ;
#551 = DIRECTION ( 'NONE',  ( 0.000000000000000000, 0.000000000000000000, -1.000000000000000000 ) ) ;
#552 = AXIS2_PLACEMENT_3D ( 'NONE', #610, #123, #867 ) ;
#553 = EDGE_CURVE ( 'NONE', #353, #359, #671, .T. ) ;
#554 = AXIS2_PLACEMENT_3D ( 'NONE', #676, #258, #345 ) ;
#555 = CARTESIAN_POINT ( 'NONE',  ( -19.05000000000000071, 2.000000000000000000, -15.79999999999999893 ) ) ;
#556 = VERTEX_POINT ( 'NONE', #98 ) ;
#557 = DIRECTION ( 'NONE',  ( 0.8944271909999159664, -0.000000000000000000, 0.4472135954999579832 ) ) ;
#558 = VECTOR ( 'NONE', #159, 1000.000000000000000 ) ;
#559 = VECTOR ( 'NONE', #633, 1000.000000000000000 ) ;
#560 = FACE_OUTER_BOUND ( 'NONE', #571, .T. ) ;
#561 = LINE ( 'NONE', #1049, #558 ) ;
#562 = CYLINDRICAL_SURFACE ( 'NONE', #373, 6.000000000000000000 ) ;
#563 = CARTESIAN_POINT ( 'NONE',  ( 19.05000000000000071, 2.000000000000000000, -15.79999999999999893 ) ) ;
#564 = EDGE_CURVE ( 'NONE', #293, #679, #906, .T. ) ;
#565 = CYLINDRICAL_SURFACE ( 'NONE', #707, 5.700000000000000178 ) ;
#566 = CARTESIAN_POINT ( 'NONE',  ( -2.944486372867085588, 8.000000000000000000, -55.89999999999999147 ) ) ;
#567 = PLANE ( 'NONE',  #587 ) ;
#568 = AXIS2_PLACEMENT_3D ( 'NONE', #585, #277, #900 ) ;
#569 = DIRECTION ( 'NONE',  ( -0.000000000000000000, -0.000000000000000000, -1.000000000000000000 ) ) ;
#570 = EDGE_CURVE ( 'NONE', #517, #353, #766, .T. ) ;
#571 = EDGE_LOOP ( 'NONE', ( #910, #239, #2, #898 ) ) ;
#572 = ORIENTED_EDGE ( 'NONE', *, *, #432, .T. ) ;
#573 = CARTESIAN_POINT ( 'NONE',  ( -5.888972745734182723, 8.000000000000000000, -50.79999999999997584 ) ) ;
#574 = FACE_OUTER_BOUND ( 'NONE', #437, .T. ) ;
#575 = VERTEX_POINT ( 'NONE', #105 ) ;
#576 = EDGE_LOOP ( 'NONE', ( #430, #1010, #459, #39 ) ) ;
#577 = EDGE_CURVE ( 'NONE', #803, #170, #433, .T. ) ;
#578 = DIRECTION ( 'NONE',  ( 0.000000000000000000, 1.000000000000000000, 0.000000000000000000 ) ) ;
#579 = CARTESIAN_POINT ( 'NONE',  ( -19.05000000000000071, 8.000012000000001677, -6.999999999999999112 ) ) ;
#580 = CARTESIAN_POINT ( 'NONE',  ( -31.11656314599949624, 8.000000000000000000, -26.66687370800100609 ) ) ;
#581 = ORIENTED_EDGE ( 'NONE', *, *, #553, .F. ) ;
#582 = ORIENTED_EDGE ( 'NONE', *, *, #507, .T. ) ;
#583 = CARTESIAN_POINT ( 'NONE',  ( -31.75000000000000000, 8.000000000000000000, 0.000000000000000000 ) ) ;
#584 = ADVANCED_FACE ( 'NONE', ( #205 ), #519, .F. ) ;
#585 = CARTESIAN_POINT ( 'NONE',  ( 8.991796067500629874, 8.000000000000000000, -57.50000000000000000 ) ) ;
#586 = DIRECTION ( 'NONE',  ( 0.000000000000000000, -1.000000000000000000, 0.000000000000000000 ) ) ;
#587 = AXIS2_PLACEMENT_3D ( 'NONE', #879, #173, #966 ) ;
#588 = VECTOR ( 'NONE', #251, 1000.000000000000000 ) ;
#589 = VECTOR ( 'NONE', #670, 1000.000000000000114 ) ;
#590 = ORIENTED_EDGE ( 'NONE', *, *, #439, .F. ) ;
#591 = ORIENTED_EDGE ( 'NONE', *, *, #849, .T. ) ;
#592 = DIRECTION ( 'NONE',  ( 0.000000000000000000, 1.000000000000000000, 0.000000000000000000 ) ) ;
#593 = CARTESIAN_POINT ( 'NONE',  ( 14.35835921350012434, 8.000000000000000000, -60.18328157299975345 ) ) ;
#594 = DIRECTION ( 'NONE',  ( 0.000000000000000000, 0.000000000000000000, 1.000000000000000000 ) ) ;
#595 = AXIS2_PLACEMENT_3D ( 'NONE', #397, #725, #1048 ) ;
#596 = VERTEX_POINT ( 'NONE', #750 ) ;
#597 = ORIENTED_EDGE ( 'NONE', *, *, #158, .T. ) ;
#598 = CARTESIAN_POINT ( 'NONE',  ( -19.05000000000000071, 0.000000000000000000, -12.69999999999999929 ) ) ;
#599 = FACE_BOUND ( 'NONE', #280, .T. ) ;
#600 = CARTESIAN_POINT ( 'NONE',  ( -2.944486372867085588, 2.000000000000000000, -55.89999999999999147 ) ) ;
#601 = EDGE_CURVE ( 'NONE', #15, #517, #420, .T. ) ;
#602 = VERTEX_POINT ( 'NONE', #22 ) ;
#603 = ORIENTED_EDGE ( 'NONE', *, *, #1002, .F. ) ;
#604 = PLANE ( 'NONE',  #757 ) ;
#605 = DIRECTION ( 'NONE',  ( 0.000000000000000000, -1.000000000000000000, 0.000000000000000000 ) ) ;
#606 = CARTESIAN_POINT ( 'NONE',  ( 31.75000000000000000, 0.000000000000000000, -5.999999999999998224 ) ) ;
#607 = VECTOR ( 'NONE', #664, 1000.000000000000114 ) ;
#608 = EDGE_LOOP ( 'NONE', ( #931, #343, #442, #195 ) ) ;
#609 = ORIENTED_EDGE ( 'NONE', *, *, #915, .T. ) ;
#610 = CARTESIAN_POINT ( 'NONE',  ( 0.000000000000000000, 0.000000000000000000, 0.000000000000000000 ) ) ;
#611 = AXIS2_PLACEMENT_3D ( 'NONE', #216, #939, #542 ) ;
#612 = DIRECTION ( 'NONE',  ( 0.000000000000000000, 0.000000000000000000, 1.000000000000000000 ) ) ;
#613 = DIRECTION ( 'NONE',  ( 0.000000000000000000, 1.000000000000000000, 0.000000000000000000 ) ) ;
#614 = ORIENTED_EDGE ( 'NONE', *, *, #439, .T. ) ;
#615 = EDGE_CURVE ( 'NONE', #223, #504, #357, .T. ) ;
#616 = CARTESIAN_POINT ( 'NONE',  ( -19.05000000000000071, 0.000000000000000000, -9.600000000000001421 ) ) ;
#617 = CARTESIAN_POINT ( 'NONE',  ( 31.75000000000000000, 8.000000000000000000, -23.98359213500125975 ) ) ;
#618 = ORIENTED_EDGE ( 'NONE', *, *, #78, .F. ) ;
#619 =( NAMED_UNIT ( * ) PLANE_ANGLE_UNIT ( ) SI_UNIT ( $, .RADIAN. ) );
#620 = DIRECTION ( 'NONE',  ( 0.000000000000000000, -1.000000000000000000, 0.000000000000000000 ) ) ;
#621 = EDGE_CURVE ( 'NONE', #840, #556, #502, .T. ) ;
#622 = FACE_OUTER_BOUND ( 'NONE', #107, .T. ) ;
#623 = EDGE_LOOP ( 'NONE', ( #523, #275, #768, #410 ) ) ;
#624 = AXIS2_PLACEMENT_3D ( 'NONE', #733, #718, #976 ) ;
#625 = AXIS2_PLACEMENT_3D ( 'NONE', #658, #592, #912 ) ;
#626 = FACE_OUTER_BOUND ( 'NONE', #94, .T. ) ;
#627 = AXIS2_PLACEMENT_3D ( 'NONE', #292, #613, #520 ) ;
#628 = LINE ( 'NONE', #69, #977 ) ;
#629 = ADVANCED_FACE ( 'NONE', ( #926 ), #850, .F. ) ;
#630 = LINE ( 'NONE', #951, #1030 ) ;
#631 = DIRECTION ( 'NONE',  ( 0.8660254037844388186, 0.000000000000000000, 0.4999999999999996669 ) ) ;
#632 = CYLINDRICAL_SURFACE ( 'NONE', #1014, 3.099999999999998757 ) ;
#633 = DIRECTION ( 'NONE',  ( -0.000000000000000000, 1.000000000000000000, -0.000000000000000000 ) ) ;
#634 = AXIS2_PLACEMENT_3D ( 'NONE', #177, #822, #744 ) ;
#635 = VECTOR ( 'NONE', #110, 1000.000000000000000 ) ;
#636 = CARTESIAN_POINT ( 'NONE',  ( 2.944486372867097135, 2.000000000000000000, -55.89999999999999147 ) ) ;
#637 = DIRECTION ( 'NONE',  ( 0.000000000000000000, 0.000000000000000000, 1.000000000000000000 ) ) ;
#638 = CARTESIAN_POINT ( 'NONE',  ( -2.944486372867085588, 2.000000000000000000, -55.89999999999999147 ) ) ;
#639 =( LENGTH_UNIT ( ) NAMED_UNIT ( * ) SI_UNIT ( .MILLI., .METRE. ) );
#640 = EDGE_CURVE ( 'NONE', #452, #602, #804, .T. ) ;
#641 = FACE_OUTER_BOUND ( 'NONE', #835, .T. ) ;
#642 = FACE_OUTER_BOUND ( 'NONE', #736, .T. ) ;
#643 = CARTESIAN_POINT ( 'NONE',  ( -31.75000000000000000, 0.000000000000000000, -23.98359213500125975 ) ) ;
#644 = CARTESIAN_POINT ( 'NONE',  ( 0.000000000000000000, 8.000000000000000000, -55.89999999999999147 ) ) ;
#645 = CARTESIAN_POINT ( 'NONE',  ( 31.11656314599949624, 0.000000000000000000, -26.66687370800100609 ) ) ;
#646 = EDGE_CURVE ( 'NONE', #679, #741, #928, .T. ) ;
#647 = VECTOR ( 'NONE', #681, 1000.000000000000000 ) ;
#648 = ORIENTED_EDGE ( 'NONE', *, *, #5, .T. ) ;
#649 = ORIENTED_EDGE ( 'NONE', *, *, #655, .F. ) ;
#650 = FILL_AREA_STYLE_COLOUR ( '', #48 ) ;
#651 = DIRECTION ( 'NONE',  ( 1.000000000000000000, 0.000000000000000000, 1.178285959793847375E-15 ) ) ;
#652 = AXIS2_PLACEMENT_3D ( 'NONE', #770, #339, #659 ) ;
#653 = ORIENTED_EDGE ( 'NONE', *, *, #230, .T. ) ;
#654 = CIRCLE ( 'NONE', #709, 3.099999999999998757 ) ;
#655 = EDGE_CURVE ( 'NONE', #940, #815, #303, .T. ) ;
#656 = ORIENTED_EDGE ( 'NONE', *, *, #382, .F. ) ;
#657 = ORIENTED_EDGE ( 'NONE', *, *, #143, .T. ) ;
#658 = CARTESIAN_POINT ( 'NONE',  ( -25.75000000000000355, 8.000000000000000000, -23.98359213500125975 ) ) ;
#659 = DIRECTION ( 'NONE',  ( 0.000000000000000000, 0.000000000000000000, 1.000000000000000000 ) ) ;
#660 = DIRECTION ( 'NONE',  ( 0.000000000000000000, -1.000000000000000000, 0.000000000000000000 ) ) ;
#661 = VERTEX_POINT ( 'NONE', #129 ) ;
#662 = ORIENTED_EDGE ( 'NONE', *, *, #464, .F. ) ;
#663 = CARTESIAN_POINT ( 'NONE',  ( -2.944486372867099355, 8.000000000000000000, -45.69999999999999574 ) ) ;
#664 = DIRECTION ( 'NONE',  ( -0.4472135954999579277, -0.000000000000000000, -0.8944271909999158554 ) ) ;
#665 = DIRECTION ( 'NONE',  ( 0.5000000000000006661, -0.000000000000000000, 0.8660254037844383745 ) ) ;
#666 = ORIENTED_EDGE ( 'NONE', *, *, #954, .T. ) ;
#667 = ORIENTED_EDGE ( 'NONE', *, *, #979, .T. ) ;
#668 = DIRECTION ( 'NONE',  ( 0.000000000000000000, 1.000000000000000000, 0.000000000000000000 ) ) ;
#669 = DIRECTION ( 'NONE',  ( 0.000000000000000000, -1.000000000000000000, 0.000000000000000000 ) ) ;
#670 = DIRECTION ( 'NONE',  ( -0.5000000000000005551, 0.000000000000000000, -0.8660254037844382635 ) ) ;
#671 = CIRCLE ( 'NONE', #568, 5.999999999999998224 ) ;
#672 = CIRCLE ( 'NONE', #136, 3.099999999999998757 ) ;
#673 = ORIENTED_EDGE ( 'NONE', *, *, #464, .T. ) ;
#674 = VERTEX_POINT ( 'NONE', #140 ) ;
#675 = DIRECTION ( 'NONE',  ( 0.000000000000000000, -1.000000000000000000, 0.000000000000000000 ) ) ;
#676 = CARTESIAN_POINT ( 'NONE',  ( 19.05000000000000071, 0.000000000000000000, -12.69999999999999929 ) ) ;
#677 = EDGE_CURVE ( 'NONE', #121, #210, #134, .T. ) ;
#678 = DIRECTION ( 'NONE',  ( 0.000000000000000000, 0.000000000000000000, -1.000000000000000000 ) ) ;
#679 = VERTEX_POINT ( 'NONE', #148 ) ;
#680 = VERTEX_POINT ( 'NONE', #450 ) ;
#681 = DIRECTION ( 'NONE',  ( -0.000000000000000000, 1.000000000000000000, -0.000000000000000000 ) ) ;
#682 = CARTESIAN_POINT ( 'NONE',  ( 2.944486372867099355, 8.000012000000001677, -45.69999999999998153 ) ) ;
#683 = DIRECTION ( 'NONE',  ( 0.000000000000000000, -1.000000000000000000, 0.000000000000000000 ) ) ;
#684 = ORIENTED_EDGE ( 'NONE', *, *, #752, .T. ) ;
#685 = ORIENTED_EDGE ( 'NONE', *, *, #548, .F. ) ;
#686 = CARTESIAN_POINT ( 'NONE',  ( -19.05000000000000071, 2.000000000000000000, -12.69999999999999929 ) ) ;
#687 = DIRECTION ( 'NONE',  ( 0.000000000000000000, 1.000000000000000000, 0.000000000000000000 ) ) ;
#688 = AXIS2_PLACEMENT_3D ( 'NONE', #109, #276, #506 ) ;
#689 = EDGE_CURVE ( 'NONE', #871, #530, #265, .T. ) ;
#690 = EDGE_LOOP ( 'NONE', ( #673, #87, #666, #597, #381, #572 ) ) ;
#691 = ORIENTED_EDGE ( 'NONE', *, *, #615, .F. ) ;
#692 = VECTOR ( 'NONE', #264, 1000.000000000000114 ) ;
#693 = AXIS2_PLACEMENT_3D ( 'NONE', #969, #557, #238 ) ;
#694 = DIRECTION ( 'NONE',  ( -0.000000000000000000, -1.000000000000000000, -0.000000000000000000 ) ) ;
#695 = CARTESIAN_POINT ( 'NONE',  ( 19.05000000000000071, 0.000000000000000000, -9.600000000000001421 ) ) ;
#696 = ORIENTED_EDGE ( 'NONE', *, *, #70, .F. ) ;
#697 = DIRECTION ( 'NONE',  ( 0.000000000000000000, 1.000000000000000000, -0.000000000000000000 ) ) ;
#698 = DIRECTION ( 'NONE',  ( 0.000000000000000000, -1.000000000000000000, 0.000000000000000000 ) ) ;
#699 = FACE_OUTER_BOUND ( 'NONE', #785, .T. ) ;
#700 = EDGE_LOOP ( 'NONE', ( #539, #113, #609, #923 ) ) ;
#701 = CARTESIAN_POINT ( 'NONE',  ( -31.75000000000000000, 8.000000000000000000, -6.000000000000000000 ) ) ;
#702 = CARTESIAN_POINT ( 'NONE',  ( 0.000000000000000000, 2.000000000000000000, -47.70000000000000284 ) ) ;
#703 = ADVANCED_FACE ( 'NONE', ( #549 ), #541, .T. ) ;
#704 = PLANE ( 'NONE',  #474 ) ;
#705 = FACE_OUTER_BOUND ( 'NONE', #983, .T. ) ;
#706 = VECTOR ( 'NONE', #605, 1000.000000000000000 ) ;
#707 = AXIS2_PLACEMENT_3D ( 'NONE', #484, #586, #678 ) ;
#708 = DIRECTION ( 'NONE',  ( -0.000000000000000000, -1.000000000000000000, -0.000000000000000000 ) ) ;
#709 = AXIS2_PLACEMENT_3D ( 'NONE', #4, #74, #738 ) ;
#710 = ORIENTED_EDGE ( 'NONE', *, *, #507, .F. ) ;
#711 = FACE_OUTER_BOUND ( 'NONE', #418, .T. ) ;
#712 = ADVANCED_FACE ( 'NONE', ( #626 ), #465, .F. ) ;
#713 = DIRECTION ( 'NONE',  ( 0.000000000000000000, 1.000000000000000000, 0.000000000000000000 ) ) ;
#714 = EDGE_LOOP ( 'NONE', ( #366, #773, #984, #685 ) ) ;
#715 = FACE_BOUND ( 'NONE', #370, .T. ) ;
#716 = APPLICATION_CONTEXT ( 'automotive_design' ) ;
#717 =( NAMED_UNIT ( * ) PLANE_ANGLE_UNIT ( ) SI_UNIT ( $, .RADIAN. ) );
#718 = DIRECTION ( 'NONE',  ( -0.000000000000000000, -1.000000000000000000, -0.000000000000000000 ) ) ;
#719 = PRODUCT_DEFINITION_FORMATION_WITH_SPECIFIED_SOURCE ( 'ANY', '', #522, .NOT_KNOWN. ) ;
#720 = UNCERTAINTY_MEASURE_WITH_UNIT (LENGTH_MEASURE( 1.000000000000000082E-05 ), #298, 'distance_accuracy_value', 'NONE');
#721 = ADVANCED_FACE ( 'NONE', ( #870 ), #776, .F. ) ;
#722 = AXIS2_PLACEMENT_3D ( 'NONE', #858, #215, #868 ) ;
#723 = LINE ( 'NONE', #71, #503 ) ;
#724 = STYLED_ITEM ( 'NONE', ( #1047 ), #921 ) ;
#725 = DIRECTION ( 'NONE',  ( 0.000000000000000000, 1.000000000000000000, 0.000000000000000000 ) ) ;
#726 = ORIENTED_EDGE ( 'NONE', *, *, #543, .T. ) ;
#727 = DIRECTION ( 'NONE',  ( 0.000000000000000000, -1.000000000000000000, 0.000000000000000000 ) ) ;
#728 = EDGE_CURVE ( 'NONE', #378, #297, #227, .T. ) ;
#729 = DIRECTION ( 'NONE',  ( 0.000000000000000000, -0.000000000000000000, 1.000000000000000000 ) ) ;
#730 = CARTESIAN_POINT ( 'NONE',  ( -26.41377481542536287, 8.000000000000000000, -15.24999999999997691 ) ) ;
#731 = VERTEX_POINT ( 'NONE', #387 ) ;
#732 = DIRECTION ( 'NONE',  ( 0.000000000000000000, -1.000000000000000000, 0.000000000000000000 ) ) ;
#733 = CARTESIAN_POINT ( 'NONE',  ( 0.000000000000000000, 2.000000000000000000, -50.79999999999999716 ) ) ;
#734 = EDGE_CURVE ( 'NONE', #88, #893, #460, .T. ) ;
#735 = ORIENTED_EDGE ( 'NONE', *, *, #601, .T. ) ;
#736 = EDGE_LOOP ( 'NONE', ( #997, #132, #190, #122 ) ) ;
#737 = CARTESIAN_POINT ( 'NONE',  ( 2.944486372867099355, 8.000000000000000000, -45.69999999999998153 ) ) ;
#738 = DIRECTION ( 'NONE',  ( 0.000000000000000000, 0.000000000000000000, 1.000000000000000000 ) ) ;
#739 = VECTOR ( 'NONE', #468, 1000.000000000000000 ) ;
#740 = EDGE_CURVE ( 'NONE', #223, #972, #469, .T. ) ;
#741 = VERTEX_POINT ( 'NONE', #212 ) ;
#742 = ORIENTED_EDGE ( 'NONE', *, *, #772, .T. ) ;
#743 = ORIENTED_EDGE ( 'NONE', *, *, #646, .T. ) ;
#744 = DIRECTION ( 'NONE',  ( 0.5000000000000005551, 0.000000000000000000, 0.8660254037844382635 ) ) ;
#745 = DIRECTION ( 'NONE',  ( 0.000000000000000000, 0.000000000000000000, -1.000000000000000000 ) ) ;
#746 = CARTESIAN_POINT ( 'NONE',  ( 5.888972745734193381, 8.000012000000001677, -50.79999999999999005 ) ) ;
#747 = ORIENTED_EDGE ( 'NONE', *, *, #422, .T. ) ;
#748 = VERTEX_POINT ( 'NONE', #616 ) ;
#749 = DIRECTION ( 'NONE',  ( 0.000000000000000000, 0.000000000000000000, 1.000000000000000000 ) ) ;
#750 = CARTESIAN_POINT ( 'NONE',  ( 5.888972745734193381, 8.000000000000000000, -50.79999999999999005 ) ) ;
#751 = LINE ( 'NONE', #23, #948 ) ;
#752 = EDGE_CURVE ( 'NONE', #575, #202, #787, .T. ) ;
#753 = EDGE_LOOP ( 'NONE', ( #112, #371, #255, #696 ) ) ;
#754 = ORIENTED_EDGE ( 'NONE', *, *, #114, .F. ) ;
#755 = EDGE_CURVE ( 'NONE', #210, #121, #860, .T. ) ;
#756 = FACE_BOUND ( 'NONE', #102, .T. ) ;
#757 = AXIS2_PLACEMENT_3D ( 'NONE', #104, #578, #925 ) ;
#758 = CARTESIAN_POINT ( 'NONE',  ( -5.888972745734182723, 8.000012000000001677, -50.79999999999997584 ) ) ;
#759 = FACE_BOUND ( 'NONE', #231, .T. ) ;
#760 = AXIS2_PLACEMENT_3D ( 'NONE', #686, #536, #383 ) ;
#761 = AXIS2_PLACEMENT_3D ( 'NONE', #34, #26, #999 ) ;
#762 = AXIS2_PLACEMENT_3D ( 'NONE', #283, #368, #514 ) ;
#763 = ORIENTED_EDGE ( 'NONE', *, *, #7, .T. ) ;
#764 = VERTEX_POINT ( 'NONE', #702 ) ;
#765 = LINE ( 'NONE', #10, #399 ) ;
#766 = LINE ( 'NONE', #593, #635 ) ;
#767 = LINE ( 'NONE', #37, #207 ) ;
#768 = ORIENTED_EDGE ( 'NONE', *, *, #548, .T. ) ;
#769 = ORIENTED_EDGE ( 'NONE', *, *, #247, .T. ) ;
#770 = CARTESIAN_POINT ( 'NONE',  ( -19.05000000000000071, 0.000000000000000000, -12.69999999999999929 ) ) ;
#771 = DIRECTION ( 'NONE',  ( -0.000000000000000000, -1.000000000000000000, -0.000000000000000000 ) ) ;
#772 = EDGE_CURVE ( 'NONE', #853, #68, #1027, .T. ) ;
#773 = ORIENTED_EDGE ( 'NONE', *, *, #171, .T. ) ;
#774 = ORIENTED_EDGE ( 'NONE', *, *, #230, .F. ) ;
#775 =( GEOMETRIC_REPRESENTATION_CONTEXT ( 3 ) GLOBAL_UNCERTAINTY_ASSIGNED_CONTEXT ( ( #720 ) ) GLOBAL_UNIT_ASSIGNED_CONTEXT ( ( #298, #619, #535 ) ) REPRESENTATION_CONTEXT ( 'NONE', 'WORKASPACE' ) );
#776 = CYLINDRICAL_SURFACE ( 'NONE', #945, 5.700000000000000178 ) ;
#777 = CARTESIAN_POINT ( 'NONE',  ( -14.35835921350012079, 8.000000000000000000, -60.18328157299975345 ) ) ;
#778 = EDGE_CURVE ( 'NONE', #359, #545, #630, .T. ) ;
#779 =( GEOMETRIC_REPRESENTATION_CONTEXT ( 3 ) GLOBAL_UNCERTAINTY_ASSIGNED_CONTEXT ( ( #325 ) ) GLOBAL_UNIT_ASSIGNED_CONTEXT ( ( #639, #717, #836 ) ) REPRESENTATION_CONTEXT ( 'NONE', 'WORKASPACE' ) );
#780 = ORIENTED_EDGE ( 'NONE', *, *, #553, .T. ) ;
#781 = VECTOR ( 'NONE', #64, 1000.000000000000114 ) ;
#782 = CARTESIAN_POINT ( 'NONE',  ( -19.05000000000000071, 8.000012000000001677, -12.69999999999999929 ) ) ;
#783 = CARTESIAN_POINT ( 'NONE',  ( -2.944486372867085588, 8.000012000000001677, -55.89999999999999147 ) ) ;
#784 = ORIENTED_EDGE ( 'NONE', *, *, #564, .F. ) ;
#785 = EDGE_LOOP ( 'NONE', ( #365, #436 ) ) ;
#786 = CIRCLE ( 'NONE', #595, 3.099999999999998757 ) ;
#787 = LINE ( 'NONE', #935, #163 ) ;
#788 = CARTESIAN_POINT ( 'NONE',  ( 25.75000000000000355, 8.000000000000000000, -5.999999999999998224 ) ) ;
#789 = LINE ( 'NONE', #59, #334 ) ;
#790 = EDGE_CURVE ( 'NONE', #15, #504, #116, .T. ) ;
#791 = CARTESIAN_POINT ( 'NONE',  ( 0.000000000000000000, 0.000000000000000000, -50.79999999999999716 ) ) ;
#792 = PLANE ( 'NONE',  #527 ) ;
#793 = AXIS2_PLACEMENT_3D ( 'NONE', #322, #477, #799 ) ;
#794 = VECTOR ( 'NONE', #683, 1000.000000000000000 ) ;
#795 = FILL_AREA_STYLE ('',( #650 ) ) ;
#796 = EDGE_LOOP ( 'NONE', ( #985, #471, #809, #127 ) ) ;
#797 = DIRECTION ( 'NONE',  ( 0.000000000000000000, -1.000000000000000000, 0.000000000000000000 ) ) ;
#798 = CARTESIAN_POINT ( 'NONE',  ( -19.05000000000000071, 8.000012000000001677, -18.39999999999999858 ) ) ;
#799 = DIRECTION ( 'NONE',  ( 0.4472135954999579277, 0.000000000000000000, 0.8944271909999158554 ) ) ;
#800 = EDGE_CURVE ( 'NONE', #972, #297, #45, .T. ) ;
#801 = LINE ( 'NONE', #321, #588 ) ;
#802 = LINE ( 'NONE', #881, #1016 ) ;
#803 = VERTEX_POINT ( 'NONE', #573 ) ;
#804 = CIRCLE ( 'NONE', #182, 3.099999999999998757 ) ;
#805 = DIRECTION ( 'NONE',  ( 0.000000000000000000, 0.000000000000000000, 1.000000000000000000 ) ) ;
#806 = VECTOR ( 'NONE', #727, 1000.000000000000000 ) ;
#807 = CARTESIAN_POINT ( 'NONE',  ( 25.75000000000000355, 8.000000000000000000, -5.999999999999998224 ) ) ;
#808 = VECTOR ( 'NONE', #332, 1000.000000000000000 ) ;
#809 = ORIENTED_EDGE ( 'NONE', *, *, #734, .F. ) ;
#810 = ORIENTED_EDGE ( 'NONE', *, *, #979, .F. ) ;
#811 = EDGE_CURVE ( 'NONE', #1003, #353, #1050, .T. ) ;
#812 = FACE_OUTER_BOUND ( 'NONE', #866, .T. ) ;
#813 = DIRECTION ( 'NONE',  ( -0.000000000000000000, 1.000000000000000000, -0.000000000000000000 ) ) ;
#814 = LINE ( 'NONE', #92, #152 ) ;
#815 = VERTEX_POINT ( 'NONE', #555 ) ;
#816 = ORIENTED_EDGE ( 'NONE', *, *, #833, .T. ) ;
#817 = FACE_OUTER_BOUND ( 'NONE', #576, .T. ) ;
#818 = EDGE_CURVE ( 'NONE', #530, #871, #333, .T. ) ;
#819 = CARTESIAN_POINT ( 'NONE',  ( 2.944486372867099355, 8.000012000000001677, -45.69999999999998153 ) ) ;
#820 = ORIENTED_EDGE ( 'NONE', *, *, #84, .F. ) ;
#821 = VERTEX_POINT ( 'NONE', #243 ) ;
#822 = DIRECTION ( 'NONE',  ( -0.8660254037844383745, 0.000000000000000000, 0.5000000000000006661 ) ) ;
#823 = AXIS2_PLACEMENT_3D ( 'NONE', #117, #28, #270 ) ;
#824 = CARTESIAN_POINT ( 'NONE',  ( 19.05000000000000071, 2.000000000000000000, -18.39999999999999858 ) ) ;
#825 = AXIS2_PLACEMENT_3D ( 'NONE', #851, #435, #427 ) ;
#826 = CARTESIAN_POINT ( 'NONE',  ( 26.41377481542539485, 8.000000000000000000, -15.25000000000003197 ) ) ;
#827 = CIRCLE ( 'NONE', #611, 5.999999999999998224 ) ;
#828 = ORIENTED_EDGE ( 'NONE', *, *, #1002, .T. ) ;
#829 = ORIENTED_EDGE ( 'NONE', *, *, #515, .F. ) ;
#830 = LINE ( 'NONE', #431, #647 ) ;
#831 = DIRECTION ( 'NONE',  ( 0.000000000000000000, -1.000000000000000000, 0.000000000000000000 ) ) ;
#832 = DIRECTION ( 'NONE',  ( 0.000000000000000000, 0.000000000000000000, 1.000000000000000000 ) ) ;
#833 = EDGE_CURVE ( 'NONE', #497, #575, #672, .T. ) ;
#834 = ORIENTED_EDGE ( 'NONE', *, *, #342, .F. ) ;
#835 = EDGE_LOOP ( 'NONE', ( #1039, #947, #862, #388 ) ) ;
#836 =( NAMED_UNIT ( * ) SI_UNIT ( $, .STERADIAN. ) SOLID_ANGLE_UNIT ( ) );
#837 = DIRECTION ( 'NONE',  ( 0.000000000000000000, -1.000000000000000000, 0.000000000000000000 ) ) ;
#838 = FACE_OUTER_BOUND ( 'NONE', #405, .T. ) ;
#839 = EDGE_CURVE ( 'NONE', #1017, #741, #801, .T. ) ;
#840 = VERTEX_POINT ( 'NONE', #643 ) ;
#841 = VERTEX_POINT ( 'NONE', #636 ) ;
#842 = FACE_OUTER_BOUND ( 'NONE', #320, .T. ) ;
#843 = ADVANCED_FACE ( 'NONE', ( #884 ), #961, .F. ) ;
#844 = DIRECTION ( 'NONE',  ( -0.000000000000000000, -0.000000000000000000, -1.000000000000000000 ) ) ;
#845 = DIRECTION ( 'NONE',  ( 0.000000000000000000, 0.000000000000000000, 1.000000000000000000 ) ) ;
#846 = AXIS2_PLACEMENT_3D ( 'NONE', #290, #532, #612 ) ;
#847 = ORIENTED_EDGE ( 'NONE', *, *, #50, .T. ) ;
#848 = EDGE_LOOP ( 'NONE', ( #657, #550 ) ) ;
#849 = EDGE_CURVE ( 'NONE', #602, #452, #959, .T. ) ;
#850 = CYLINDRICAL_SURFACE ( 'NONE', #652, 3.099999999999998757 ) ;
#851 = CARTESIAN_POINT ( 'NONE',  ( -2.944486372867099355, 8.000012000000001677, -45.69999999999998863 ) ) ;
#852 = ORIENTED_EDGE ( 'NONE', *, *, #570, .F. ) ;
#853 = VERTEX_POINT ( 'NONE', #566 ) ;
#854 = APPLICATION_PROTOCOL_DEFINITION ( 'draft international standard', 'automotive_design', 1998, #716 ) ;
#855 = DIRECTION ( 'NONE',  ( 1.734723475976807686E-15, 0.000000000000000000, 1.000000000000000000 ) ) ;
#856 = DIRECTION ( 'NONE',  ( -1.000000000000000000, 0.000000000000000000, -1.178285959793847375E-15 ) ) ;
#857 = ORIENTED_EDGE ( 'NONE', *, *, #865, .T. ) ;
#858 = CARTESIAN_POINT ( 'NONE',  ( -19.05000000000000071, 2.000000000000000000, -12.69999999999999929 ) ) ;
#859 = DIRECTION ( 'NONE',  ( -0.000000000000000000, -1.000000000000000000, 0.000000000000000000 ) ) ;
#860 = CIRCLE ( 'NONE', #760, 5.700000000000000178 ) ;
#861 = CIRCLE ( 'NONE', #165, 5.999999999999998224 ) ;
#862 = ORIENTED_EDGE ( 'NONE', *, *, #525, .T. ) ;
#863 = DIRECTION ( 'NONE',  ( 1.000000000000000000, 0.000000000000000000, 0.000000000000000000 ) ) ;
#864 = FACE_OUTER_BOUND ( 'NONE', #1018, .T. ) ;
#865 = EDGE_CURVE ( 'NONE', #956, #256, #1042, .T. ) ;
#866 = EDGE_LOOP ( 'NONE', ( #754, #828, #932, #978 ) ) ;
#867 = DIRECTION ( 'NONE',  ( 1.000000000000000000, 0.000000000000000000, 0.000000000000000000 ) ) ;
#868 = DIRECTION ( 'NONE',  ( 0.000000000000000000, 0.000000000000000000, 1.000000000000000000 ) ) ;
#869 = DIRECTION ( 'NONE',  ( 0.4999999999999998890, 0.000000000000000000, 0.8660254037844385966 ) ) ;
#870 = FACE_OUTER_BOUND ( 'NONE', #126, .T. ) ;
#871 = VERTEX_POINT ( 'NONE', #79 ) ;
#872 = CYLINDRICAL_SURFACE ( 'NONE', #962, 5.999999999999998224 ) ;
#873 = VECTOR ( 'NONE', #179, 1000.000000000000000 ) ;
#874 = VECTOR ( 'NONE', #172, 1000.000000000000114 ) ;
#875 = CARTESIAN_POINT ( 'NONE',  ( 19.05000000000000071, 0.000000000000000000, -15.79999999999999893 ) ) ;
#876 = VECTOR ( 'NONE', #58, 1000.000000000000000 ) ;
#877 = ADVANCED_FACE ( 'NONE', ( #812 ), #632, .F. ) ;
#878 = ORIENTED_EDGE ( 'NONE', *, *, #237, .T. ) ;
#879 = CARTESIAN_POINT ( 'NONE',  ( 2.944486372867097135, 8.000012000000001677, -55.89999999999999147 ) ) ;
#880 = CYLINDRICAL_SURFACE ( 'NONE', #267, 5.700000000000000178 ) ;
#881 = CARTESIAN_POINT ( 'NONE',  ( 19.05000000000000071, 0.000000000000000000, -9.600000000000001421 ) ) ;
#882 = ADVANCED_FACE ( 'NONE', ( #166 ), #562, .T. ) ;
#883 = CARTESIAN_POINT ( 'NONE',  ( 2.944486372867099355, 2.000000000000000000, -45.69999999999998153 ) ) ;
#884 = FACE_OUTER_BOUND ( 'NONE', #183, .T. ) ;
#885 = CARTESIAN_POINT ( 'NONE',  ( 0.000000000000000000, 0.000000000000000000, -47.70000000000000284 ) ) ;
#886 = DIRECTION ( 'NONE',  ( -0.4999999999999998890, 0.000000000000000000, -0.8660254037844385966 ) ) ;
#887 = VECTOR ( 'NONE', #831, 1000.000000000000000 ) ;
#888 = DIRECTION ( 'NONE',  ( -0.000000000000000000, -1.000000000000000000, -0.000000000000000000 ) ) ;
#889 = DIRECTION ( 'NONE',  ( 0.000000000000000000, 1.000000000000000000, 0.000000000000000000 ) ) ;
#890 = VECTOR ( 'NONE', #927, 999.9999999999998863 ) ;
#891 = PLANE ( 'NONE',  #929 ) ;
#892 = PRODUCT_DEFINITION ( 'UNKNOWN', '', #719, #401 ) ;
#893 = VERTEX_POINT ( 'NONE', #3 ) ;
#894 = CARTESIAN_POINT ( 'NONE',  ( -19.05000000000000071, 2.000000000000000000, -9.600000000000001421 ) ) ;
#895 = DIRECTION ( 'NONE',  ( -0.000000000000000000, 1.000000000000000000, -0.000000000000000000 ) ) ;
#896 = ADVANCED_BREP_SHAPE_REPRESENTATION ( 'Flat Bracket', ( #921, #552 ), #775 ) ;
#897 = VERTEX_POINT ( 'NONE', #875 ) ;
#898 = ORIENTED_EDGE ( 'NONE', *, *, #1051, .F. ) ;
#899 = CYLINDRICAL_SURFACE ( 'NONE', #688, 3.099999999999998757 ) ;
#900 = DIRECTION ( 'NONE',  ( 0.000000000000000000, 0.000000000000000000, 1.000000000000000000 ) ) ;
#901 = PLANE ( 'NONE',  #402 ) ;
#902 = ORIENTED_EDGE ( 'NONE', *, *, #778, .T. ) ;
#903 = ORIENTED_EDGE ( 'NONE', *, *, #100, .T. ) ;
#904 = CARTESIAN_POINT ( 'NONE',  ( 19.05000000000000071, 8.000012000000001677, -12.69999999999999929 ) ) ;
#905 = AXIS2_PLACEMENT_3D ( 'NONE', #374, #694, #855 ) ;
#906 = LINE ( 'NONE', #440, #887 ) ;
#907 = MECHANICAL_DESIGN_GEOMETRIC_PRESENTATION_REPRESENTATION (  '', ( #724 ), #779 ) ;
#908 = EDGE_CURVE ( 'NONE', #661, #841, #723, .T. ) ;
#909 = FACE_OUTER_BOUND ( 'NONE', #176, .T. ) ;
#910 = ORIENTED_EDGE ( 'NONE', *, *, #752, .F. ) ;
#911 = ORIENTED_EDGE ( 'NONE', *, *, #1037, .T. ) ;
#912 = DIRECTION ( 'NONE',  ( 0.000000000000000000, 0.000000000000000000, 1.000000000000000000 ) ) ;
#913 = DIRECTION ( 'NONE',  ( -0.4472135954999579277, -0.000000000000000000, 0.8944271909999158554 ) ) ;
#914 = CARTESIAN_POINT ( 'NONE',  ( -19.05000000000000071, 2.000000000000000000, -6.999999999999999112 ) ) ;
#915 = EDGE_CURVE ( 'NONE', #476, #121, #160, .T. ) ;
#916 = ORIENTED_EDGE ( 'NONE', *, *, #5, .F. ) ;
#917 = VERTEX_POINT ( 'NONE', #894 ) ;
#918 = DIRECTION ( 'NONE',  ( -0.000000000000000000, 1.000000000000000000, -0.000000000000000000 ) ) ;
#919 = DIRECTION ( 'NONE',  ( 0.000000000000000000, -0.000000000000000000, 1.000000000000000000 ) ) ;
#920 = DIRECTION ( 'NONE',  ( -0.000000000000000000, -1.000000000000000000, -0.000000000000000000 ) ) ;
#921 = MANIFOLD_SOLID_BREP ( 'Cut-Extrude2', #235 ) ;
#922 = ADVANCED_FACE ( 'NONE', ( #354 ), #880, .F. ) ;
#923 = ORIENTED_EDGE ( 'NONE', *, *, #755, .F. ) ;
#924 = ORIENTED_EDGE ( 'NONE', *, *, #577, .F. ) ;
#925 = DIRECTION ( 'NONE',  ( 0.000000000000000000, -0.000000000000000000, 1.000000000000000000 ) ) ;
#926 = FACE_OUTER_BOUND ( 'NONE', #608, .T. ) ;
#927 = DIRECTION ( 'NONE',  ( -0.4999999999999999445, 0.000000000000000000, -0.8660254037844387076 ) ) ;
#928 = CIRCLE ( 'NONE', #905, 5.999999999999998224 ) ;
#929 = AXIS2_PLACEMENT_3D ( 'NONE', #1032, #307, #886 ) ;
#930 = AXIS2_PLACEMENT_3D ( 'NONE', #305, #141, #457 ) ;
#931 = ORIENTED_EDGE ( 'NONE', *, *, #415, .F. ) ;
#932 = ORIENTED_EDGE ( 'NONE', *, *, #849, .F. ) ;
#933 = EDGE_CURVE ( 'NONE', #248, #1003, #861, .T. ) ;
#934 = PRODUCT_CONTEXT ( 'NONE', #496, 'mechanical' ) ;
#935 = CARTESIAN_POINT ( 'NONE',  ( 3.796405077356794425E-16, 0.000000000000000000, -53.89999999999999858 ) ) ;
#936 = DIRECTION ( 'NONE',  ( 0.000000000000000000, -0.000000000000000000, 1.000000000000000000 ) ) ;
#937 = ORIENTED_EDGE ( 'NONE', *, *, #525, .F. ) ;
#938 = CARTESIAN_POINT ( 'NONE',  ( 19.05000000000000071, 2.000000000000000000, -12.69999999999999929 ) ) ;
#939 = DIRECTION ( 'NONE',  ( 0.000000000000000000, 1.000000000000000000, 0.000000000000000000 ) ) ;
#940 = VERTEX_POINT ( 'NONE', #269 ) ;
#941 = AXIS2_PLACEMENT_3D ( 'NONE', #583, #185, #386 ) ;
#942 = DIRECTION ( 'NONE',  ( -0.000000000000000000, 1.000000000000000000, -0.000000000000000000 ) ) ;
#943 = FACE_OUTER_BOUND ( 'NONE', #43, .T. ) ;
#944 = EDGE_CURVE ( 'NONE', #917, #815, #29, .T. ) ;
#945 = AXIS2_PLACEMENT_3D ( 'NONE', #782, #620, #218 ) ;
#946 = VECTOR ( 'NONE', #328, 1000.000000000000000 ) ;
#947 = ORIENTED_EDGE ( 'NONE', *, *, #564, .T. ) ;
#948 = VECTOR ( 'NONE', #125, 1000.000000000000000 ) ;
#949 = CARTESIAN_POINT ( 'NONE',  ( 25.75000000000000355, 0.000000000000000000, -5.999999999999998224 ) ) ;
#950 = CARTESIAN_POINT ( 'NONE',  ( 0.000000000000000000, 0.000000000000000000, 0.000000000000000000 ) ) ;
#951 = CARTESIAN_POINT ( 'NONE',  ( -12.69999999999999929, 8.000000000000000000, -63.50000000000000000 ) ) ;
#952 = ORIENTED_EDGE ( 'NONE', *, *, #933, .F. ) ;
#953 = DIRECTION ( 'NONE',  ( 0.4999999999999996669, 0.000000000000000000, -0.8660254037844388186 ) ) ;
#954 = EDGE_CURVE ( 'NONE', #841, #68, #765, .T. ) ;
#955 = CARTESIAN_POINT ( 'NONE',  ( 19.05000000000000071, 2.000000000000000000, -12.69999999999999929 ) ) ;
#956 = VERTEX_POINT ( 'NONE', #663 ) ;
#957 = CYLINDRICAL_SURFACE ( 'NONE', #99, 3.099999999999998757 ) ;
#958 = AXIS2_PLACEMENT_3D ( 'NONE', #187, #198, #919 ) ;
#959 = CIRCLE ( 'NONE', #221, 3.099999999999998757 ) ;
#960 = EDGE_CURVE ( 'NONE', #821, #88, #316, .T. ) ;
#961 = PLANE ( 'NONE',  #1045 ) ;
#962 = AXIS2_PLACEMENT_3D ( 'NONE', #1036, #859, #391 ) ;
#963 = LINE ( 'NONE', #885, #559 ) ;
#964 = CARTESIAN_POINT ( 'NONE',  ( -31.75000000000000000, 8.000000000000000000, -23.98359213500125975 ) ) ;
#965 = DIRECTION ( 'NONE',  ( 0.000000000000000000, 0.000000000000000000, 1.000000000000000000 ) ) ;
#966 = DIRECTION ( 'NONE',  ( 1.000000000000000000, 0.000000000000000000, -0.000000000000000000 ) ) ;
#967 = DIRECTION ( 'NONE',  ( 0.000000000000000000, 1.000000000000000000, 0.000000000000000000 ) ) ;
#968 = CARTESIAN_POINT ( 'NONE',  ( 31.75000000000000000, 8.000000000000000000, -25.39999999999999858 ) ) ;
#969 = CARTESIAN_POINT ( 'NONE',  ( -31.75000000000000000, 8.000000000000000000, -25.39999999999999858 ) ) ;
#970 = EDGE_CURVE ( 'NONE', #250, #972, #17, .T. ) ;
#971 = VERTEX_POINT ( 'NONE', #737 ) ;
#972 = VERTEX_POINT ( 'NONE', #512 ) ;
#973 = VECTOR ( 'NONE', #487, 1000.000000000000000 ) ;
#974 = ORIENTED_EDGE ( 'NONE', *, *, #621, .T. ) ;
#975 = DIRECTION ( 'NONE',  ( 0.000000000000000000, 1.000000000000000000, 0.000000000000000000 ) ) ;
#976 = DIRECTION ( 'NONE',  ( 0.000000000000000000, 0.000000000000000000, 1.000000000000000000 ) ) ;
#977 = VECTOR ( 'NONE', #451, 1000.000000000000000 ) ;
#978 = ORIENTED_EDGE ( 'NONE', *, *, #369, .F. ) ;
#979 = EDGE_CURVE ( 'NONE', #893, #378, #77, .T. ) ;
#980 = ORIENTED_EDGE ( 'NONE', *, *, #158, .F. ) ;
#981 = FACE_OUTER_BOUND ( 'NONE', #311, .T. ) ;
#982 = CARTESIAN_POINT ( 'NONE',  ( 14.35835921350012434, 0.000000000000000000, -60.18328157299975345 ) ) ;
#983 = EDGE_LOOP ( 'NONE', ( #857, #834, #924, #531 ) ) ;
#984 = ORIENTED_EDGE ( 'NONE', *, *, #818, .F. ) ;
#985 = ORIENTED_EDGE ( 'NONE', *, *, #56, .T. ) ;
#986 = ADVANCED_FACE ( 'NONE', ( #981 ), #899, .F. ) ;
#987 = CYLINDRICAL_SURFACE ( 'NONE', #434, 3.099999999999998757 ) ;
#988 = CARTESIAN_POINT ( 'NONE',  ( 31.75000000000000000, 0.000000000000000000, -25.39999999999999858 ) ) ;
#989 = LINE ( 'NONE', #600, #692 ) ;
#990 = ORIENTED_EDGE ( 'NONE', *, *, #178, .T. ) ;
#991 = ORIENTED_EDGE ( 'NONE', *, *, #615, .T. ) ;
#992 = AXIS2_PLACEMENT_3D ( 'NONE', #791, #942, #299 ) ;
#993 = ADVANCED_FACE ( 'NONE', ( #842 ), #987, .F. ) ;
#994 = FACE_OUTER_BOUND ( 'NONE', #690, .T. ) ;
#995 = VECTOR ( 'NONE', #191, 1000.000000000000000 ) ;
#996 = CARTESIAN_POINT ( 'NONE',  ( 0.000000000000000000, 0.000000000000000000, -50.79999999999999716 ) ) ;
#997 = ORIENTED_EDGE ( 'NONE', *, *, #839, .T. ) ;
#998 = EDGE_LOOP ( 'NONE', ( #810, #494, #505, #916 ) ) ;
#999 = DIRECTION ( 'NONE',  ( 0.000000000000000000, 0.000000000000000000, 1.000000000000000000 ) ) ;
#1000 = LINE ( 'NONE', #682, #246 ) ;
#1001 = CARTESIAN_POINT ( 'NONE',  ( 19.05000000000000071, 0.000000000000000000, -12.69999999999999929 ) ) ;
#1002 = EDGE_CURVE ( 'NONE', #897, #452, #830, .T. ) ;
#1003 = VERTEX_POINT ( 'NONE', #257 ) ;
#1004 = ORIENTED_EDGE ( 'NONE', *, *, #50, .F. ) ;
#1005 = CARTESIAN_POINT ( 'NONE',  ( 25.75000000000000355, 8.000000000000000000, -23.98359213500125975 ) ) ;
#1006 = DIRECTION ( 'NONE',  ( -0.000000000000000000, -1.000000000000000000, -0.000000000000000000 ) ) ;
#1007 = CARTESIAN_POINT ( 'NONE',  ( 5.888972745734193381, 2.000000000000000000, -50.79999999999999005 ) ) ;
#1008 = ADVANCED_FACE ( 'NONE', ( #115, #756, #438, #281 ), #604, .T. ) ;
#1009 = VERTEX_POINT ( 'NONE', #419 ) ;
#1010 = ORIENTED_EDGE ( 'NONE', *, *, #147, .F. ) ;
#1011 = DIRECTION ( 'NONE',  ( -1.000000000000000000, -0.000000000000000000, -0.000000000000000000 ) ) ;
#1012 = CIRCLE ( 'NONE', #624, 3.099999999999998757 ) ;
#1013 = PLANE ( 'NONE',  #627 ) ;
#1014 = AXIS2_PLACEMENT_3D ( 'NONE', #73, #229, #403 ) ;
#1015 = VECTOR ( 'NONE', #81, 1000.000000000000000 ) ;
#1016 = VECTOR ( 'NONE', #330, 1000.000000000000000 ) ;
#1017 = VERTEX_POINT ( 'NONE', #492 ) ;
#1018 = EDGE_LOOP ( 'NONE', ( #209, #32, #417, #648 ) ) ;
#1019 = ADVANCED_FACE ( 'NONE', ( #817 ), #89, .T. ) ;
#1020 = DIRECTION ( 'NONE',  ( -0.000000000000000000, -0.000000000000000000, 1.000000000000000000 ) ) ;
#1021 = CYLINDRICAL_SURFACE ( 'NONE', #930, 5.999999999999998224 ) ;
#1022 = ORIENTED_EDGE ( 'NONE', *, *, #640, .T. ) ;
#1023 = ADVANCED_FACE ( 'NONE', ( #344 ), #262, .F. ) ;
#1024 = DIRECTION ( 'NONE',  ( 0.000000000000000000, 0.000000000000000000, -1.000000000000000000 ) ) ;
#1025 = FACE_BOUND ( 'NONE', #348, .T. ) ;
#1026 = ORIENTED_EDGE ( 'NONE', *, *, #570, .T. ) ;
#1027 = LINE ( 'NONE', #1034, #304 ) ;
#1028 = EDGE_CURVE ( 'NONE', #731, #893, #128, .T. ) ;
#1029 = CARTESIAN_POINT ( 'NONE',  ( -31.75000000000000000, 8.000000000000000000, 0.000000000000000000 ) ) ;
#1030 = VECTOR ( 'NONE', #1011, 1000.000000000000000 ) ;
#1031 = AXIS2_PLACEMENT_3D ( 'NONE', #447, #771, #594 ) ;
#1032 = CARTESIAN_POINT ( 'NONE',  ( -5.888972745734182723, 8.000012000000001677, -50.79999999999997584 ) ) ;
#1033 = CARTESIAN_POINT ( 'NONE',  ( -25.75000000000000355, 0.000000000000000000, -6.000000000000000000 ) ) ;
#1034 = CARTESIAN_POINT ( 'NONE',  ( -2.944486372867085588, 8.000012000000001677, -55.89999999999999147 ) ) ;
#1035 = ORIENTED_EDGE ( 'NONE', *, *, #646, .F. ) ;
#1036 = CARTESIAN_POINT ( 'NONE',  ( -8.991796067500629874, 8.000000000000000000, -57.50000000000000000 ) ) ;
#1037 = EDGE_CURVE ( 'NONE', #250, #731, #301, .T. ) ;
#1038 = DIRECTION ( 'NONE',  ( 0.000000000000000000, -1.000000000000000000, 0.000000000000000000 ) ) ;
#1039 = ORIENTED_EDGE ( 'NONE', *, *, #254, .F. ) ;
#1040 = PLANE ( 'NONE',  #317 ) ;
#1041 = PRODUCT_RELATED_PRODUCT_CATEGORY ( 'part', '', ( #522 ) ) ;
#1042 = LINE ( 'NONE', #475, #806 ) ;
#1043 = FACE_OUTER_BOUND ( 'NONE', #335, .T. ) ;
#1044 = CIRCLE ( 'NONE', #823, 5.700000000000001954 ) ;
#1045 = AXIS2_PLACEMENT_3D ( 'NONE', #968, #396, #478 ) ;
#1046 = CIRCLE ( 'NONE', #206, 5.700000000000000178 ) ;
#1047 = PRESENTATION_STYLE_ASSIGNMENT (( #318 ) ) ;
#1048 = DIRECTION ( 'NONE',  ( 0.000000000000000000, 0.000000000000000000, 1.000000000000000000 ) ) ;
#1049 = CARTESIAN_POINT ( 'NONE',  ( -8.991796067500629874, 8.000000000000000000, -63.50000000000000000 ) ) ;
#1050 = LINE ( 'NONE', #156, #874 ) ;
#1051 = EDGE_CURVE ( 'NONE', #202, #764, #284, .T. ) ;
#1052 = CARTESIAN_POINT ( 'NONE',  ( -25.75000000000000355, 8.000000000000000000, 0.000000000000000000 ) ) ;
#1053 = CARTESIAN_POINT ( 'NONE',  ( 19.05000000000000071, 8.000000000000000000, -6.999999999999997335 ) ) ;
ENDSEC;
END-ISO-10303-21;
